<svg width="28" height="28" viewBox="0 0 28 28" fill="none" xmlns="http://www.w3.org/2000/svg">
<g id="Group 84">
<circle id="Ellipse 21" cx="13.7219" cy="13.9846" r="13.7219" fill="url(#paint0_linear_436_6021)"/>
<path id="Union" fill-rule="evenodd" clip-rule="evenodd" d="M12.0436 21.8415C12.5336 22.0916 13.0765 22.2206 13.6266 22.2178C14.1768 22.2206 14.7196 22.0916 15.2097 21.8415C15.6998 21.5914 16.1228 21.2276 16.4433 20.7804C18.9333 17.3456 20.1963 14.7635 20.1963 13.1053C20.1963 11.3629 19.5041 9.69189 18.2721 8.45984C17.04 7.2278 15.369 6.53564 13.6266 6.53564C11.8843 6.53564 10.2132 7.2278 8.98121 8.45984C7.74916 9.69189 7.05701 11.3629 7.05701 13.1053C7.05701 14.7635 8.31997 17.3456 10.81 20.7804C11.1305 21.2276 11.5535 21.5914 12.0436 21.8415ZM9.99055 9.47049C10.955 8.50603 12.2627 7.96351 13.6266 7.96195C14.9906 7.96351 16.2982 8.50603 17.2627 9.47049C18.2272 10.435 18.7697 11.7426 18.7713 13.1066C18.7713 14.4198 17.5344 16.8484 15.2895 19.9447C15.0989 20.2072 14.8488 20.4209 14.5598 20.5682C14.2708 20.7155 13.951 20.7924 13.6266 20.7924C13.3022 20.7924 12.9824 20.7155 12.6934 20.5682C12.4044 20.4209 12.1544 20.2072 11.9638 19.9447C9.71883 16.8484 8.482 14.4198 8.482 13.1066C8.48356 11.7426 9.02608 10.435 9.99055 9.47049ZM12.1747 10.8975C12.6045 10.6103 13.1098 10.457 13.6267 10.457C14.3198 10.457 14.9846 10.7324 15.4747 11.2225C15.9648 11.7126 16.2402 12.3774 16.2402 13.0705C16.2402 13.5874 16.0869 14.0927 15.7997 14.5225C15.5126 14.9523 15.1044 15.2872 14.6268 15.485C14.1493 15.6829 13.6238 15.7346 13.1168 15.6338C12.6099 15.5329 12.1442 15.284 11.7787 14.9185C11.4132 14.553 11.1643 14.0873 11.0634 13.5804C10.9626 13.0734 11.0144 12.5479 11.2122 12.0704C11.41 11.5928 11.7449 11.1847 12.1747 10.8975ZM12.9007 14.157C13.1156 14.3006 13.3682 14.3772 13.6267 14.3772C13.9733 14.3772 14.3056 14.2396 14.5507 13.9945C14.7958 13.7494 14.9334 13.4171 14.9334 13.0705C14.9334 12.8121 14.8568 12.5594 14.7132 12.3445C14.5696 12.1296 14.3655 11.9621 14.1268 11.8632C13.888 11.7643 13.6252 11.7385 13.3718 11.7889C13.1183 11.8393 12.8854 11.9638 12.7027 12.1465C12.5199 12.3293 12.3955 12.5621 12.3451 12.8156C12.2946 13.0691 12.3205 13.3318 12.4194 13.5706C12.5183 13.8093 12.6858 14.0134 12.9007 14.157Z" fill="white"/>
</g>
<defs>
<linearGradient id="paint0_linear_436_6021" x1="0" y1="0.262695" x2="28.7176" y2="2.4564" gradientUnits="userSpaceOnUse">
<stop stop-color="#8032DC"/>
<stop offset="1" stop-color="#234E94"/>
</linearGradient>
</defs>
</svg>
