<svg width="35" height="35" viewBox="0 0 35 35" fill="none" xmlns="http://www.w3.org/2000/svg">
<circle cx="17.5" cy="17.5" r="17.5" fill="url(#paint0_linear_111_1853)"/>
<path d="M25.8442 13.0697L20.6512 8.09051C19.9475 7.39383 18.998 7.00211 18.0079 7.00001C17.0179 6.9979 16.0667 7.38557 15.36 8.07926L10.155 13.0697C9.79096 13.4205 9.50112 13.8409 9.30271 14.306C9.10429 14.771 9.00135 15.2713 9 15.7769V21.2483C9.00119 22.243 9.39666 23.1965 10.0997 23.8998C10.8027 24.6032 11.7558 24.9988 12.75 25H23.25C24.2442 24.9988 25.1973 24.6032 25.9003 23.8998C26.6033 23.1965 26.9988 22.243 27 21.2483V15.7769C26.9987 15.2712 26.8957 14.7709 26.6971 14.3058C26.4986 13.8407 26.2085 13.4204 25.8442 13.0697V13.0697ZM16.4092 9.15148C16.8345 8.72979 17.4097 8.4942 18.0085 8.49645C18.6073 8.49871 19.1806 8.73861 19.6028 9.16349L24.663 14.0136L19.5908 19.0889C19.162 19.4978 18.5924 19.7259 18 19.7259C17.4076 19.7259 16.838 19.4978 16.4092 19.0889L11.3363 14.0136L16.4092 9.15148ZM25.5 21.2483C25.5 21.8453 25.2629 22.4179 24.841 22.84C24.419 23.2622 23.8467 23.4993 23.25 23.4993H12.75C12.1533 23.4993 11.581 23.2622 11.159 22.84C10.7371 22.4179 10.5 21.8453 10.5 21.2483V15.7769C10.5008 15.6313 10.5156 15.486 10.5443 15.3432L15.3488 20.1499C16.0543 20.8488 17.0071 21.2409 18 21.2409C18.9929 21.2409 19.9457 20.8488 20.6512 20.1499L25.4557 15.3432C25.4844 15.486 25.4992 15.6313 25.5 15.7769V21.2483Z" fill="white"/>
<defs>
<linearGradient id="paint0_linear_111_1853" x1="0" y1="0" x2="36.6244" y2="2.7977" gradientUnits="userSpaceOnUse">
<stop stop-color="#7935D7"/>
<stop offset="1" stop-color="#2E4B9C"/>
</linearGradient>
</defs>
</svg>
