<svg width="168" height="70" viewBox="0 0 168 70" fill="none" xmlns="http://www.w3.org/2000/svg">
<path d="M0 67.6312V62.2261H1.55154L2.4858 65.9129L3.38669 62.2261H4.95492V67.6312H3.98729V63.3772L2.96961 67.6312H1.96862L0.967627 63.3772V67.6312H0Z" fill="white"/>
<path d="M17.0669 64.9619C17.0669 64.4114 17.1503 63.9443 17.3005 63.5773C17.4172 63.2937 17.5841 63.0601 17.7843 62.8432C17.9845 62.6264 18.2014 62.4595 18.4516 62.3595C18.7686 62.2093 19.1356 62.1426 19.5527 62.1426C20.3034 62.1426 20.9207 62.3928 21.3712 62.8766C21.8216 63.3771 22.0552 64.0611 22.0552 64.9452C22.0552 65.8127 21.8216 66.4967 21.3712 66.9972C20.9207 67.4977 20.3201 67.7312 19.5694 67.7312C18.8019 67.7312 18.2014 67.481 17.7509 66.9972C17.3005 66.4967 17.0669 65.8294 17.0669 64.9619ZM18.1513 64.9286C18.1513 65.5458 18.2848 66.0129 18.5517 66.3299C18.8186 66.6469 19.169 66.797 19.5694 66.797C19.9865 66.797 20.3201 66.6469 20.5871 66.3299C20.854 66.0129 20.9875 65.5458 20.9875 64.9119C20.9875 64.2946 20.854 63.8275 20.6037 63.5272C20.3535 63.2269 20.0031 63.0768 19.5694 63.0768C19.1356 63.0768 18.8019 63.2269 18.535 63.5439C18.2681 63.8442 18.1513 64.3113 18.1513 64.9286Z" fill="white"/>
<path d="M35.3185 67.6312V63.1436H33.8003V62.2261H37.871V63.1436H36.3695V67.6312H35.3185Z" fill="white"/>
<path d="M49.8162 67.6312V62.2261H50.8505V67.6312H49.8162Z" fill="white"/>
<path d="M62.9292 64.9619C62.9292 64.4114 63.0126 63.9443 63.1628 63.5773C63.2795 63.2937 63.4464 63.0601 63.6466 62.8432C63.8468 62.6264 64.0637 62.4595 64.3139 62.3595C64.6309 62.2093 64.9979 62.1426 65.415 62.1426C66.1657 62.1426 66.783 62.3928 67.2335 62.8766C67.6839 63.3771 67.9175 64.0611 67.9175 64.9452C67.9175 65.8127 67.6839 66.4967 67.2335 66.9972C66.783 67.4977 66.1824 67.7312 65.4317 67.7312C64.6643 67.7312 64.0637 67.481 63.6132 66.9972C63.1461 66.4967 62.9292 65.8294 62.9292 64.9619ZM63.9969 64.9286C63.9969 65.5458 64.1304 66.0129 64.3973 66.3299C64.6643 66.6469 65.0146 66.797 65.415 66.797C65.8321 66.797 66.1657 66.6469 66.4327 66.3299C66.6996 66.0129 66.8331 65.5458 66.8331 64.9119C66.8331 64.2946 66.6996 63.8275 66.4494 63.5272C66.1991 63.2269 65.8488 63.0768 65.415 63.0768C64.9812 63.0768 64.6476 63.2269 64.3806 63.5439C64.1304 63.8442 63.9969 64.3113 63.9969 64.9286Z" fill="white"/>
<path d="M80.0293 67.6312V62.2261H81.0303L83.149 65.8462V62.2261H84.1V67.6312H83.0656L80.9802 64.0778V67.6312H80.0293Z" fill="white"/>
<path d="M117.75 67.6312L115.915 62.2261H117.033L118.334 66.2299L119.602 62.2261H120.703L118.868 67.6312H117.75Z" fill="white"/>
<path d="M132.481 67.6312V62.2261H133.532V67.6312H132.481Z" fill="white"/>
<path d="M145.811 67.6312V62.2261H149.615V63.1436H146.846V64.3448H149.415V65.2623H146.846V66.7137H149.715V67.6312H145.811Z" fill="white"/>
<path d="M162.478 67.6312L161.277 62.2261H162.344L163.112 65.9463L164.046 62.2261H165.281L166.181 65.9963L166.966 62.2261H168L166.765 67.6312H165.648L164.647 63.594L163.629 67.6312H162.478Z" fill="white"/>
<path d="M168 69.1992H0V70H168V69.1992Z" fill="white"/>
<path d="M31.8149 22.0875C30.6971 21.4703 29.3791 21.1533 27.8943 21.1533C24.7913 21.1533 22.489 22.3545 20.9875 24.7568C19.6361 22.3545 17.4673 21.1533 14.481 21.1533C11.6949 21.1533 9.59285 22.3545 8.12473 24.7568V21.6204H0V44.7758H8.75869V30.312C8.75869 28.4603 9.49275 27.5427 10.9609 27.5427C12.3789 27.5427 13.0963 28.4603 13.0963 30.312V44.7758H21.805V31.3964C21.805 28.9274 22.6558 27.6929 24.3408 27.6929C25.0415 27.6929 25.542 27.8931 25.8089 28.2768C26.0926 28.6605 26.226 29.3445 26.226 30.312V44.7925H35.0348V29.0275C35.0348 26.9755 34.7845 25.4574 34.2673 24.4898C33.7668 23.5056 32.9494 22.7048 31.8149 22.0875Z" fill="white"/>
<path d="M96.2622 13.9302L87.6369 14.0636L87.5035 21.6042H84.05V27.4764H87.5035V34.7834L87.4868 37.4859C87.4868 40.1051 88.1541 42.0236 89.4554 43.2247C90.7734 44.4259 92.8254 45.0265 95.6115 45.0265C97.3299 45.0265 99.0983 44.8596 100.883 44.5093V38.0365C99.8824 38.2867 99.0149 38.4035 98.2975 38.4035C97.8304 38.4035 97.3799 38.2867 96.9462 38.0698C96.4957 37.853 96.2788 37.169 96.2788 35.9845V27.443H100.883V21.5708H96.2622V13.9302Z" fill="white"/>
<path d="M129.278 21.1533C125.491 21.1533 122.421 22.3044 120.069 24.6066C117.717 26.9088 116.532 29.7949 116.532 33.2482C116.532 36.4679 117.667 39.2706 119.919 41.6562C122.171 44.0418 125.224 45.2429 129.061 45.2429C132.949 45.2429 136.052 44.0918 138.404 41.773C140.756 39.4541 141.924 36.5847 141.924 33.1147C141.924 29.6781 140.773 26.8254 138.454 24.5566C136.135 22.2877 133.082 21.1533 129.278 21.1533ZM131.764 37.5523C131.464 39.0203 130.596 39.7544 129.195 39.7544C128.194 39.7544 127.46 39.3206 126.959 38.4698C126.459 37.619 126.208 35.8673 126.208 33.1981C126.208 30.946 126.442 29.3111 126.926 28.3268C127.41 27.3425 128.16 26.8421 129.211 26.8421C130.346 26.8421 131.113 27.3259 131.564 28.2768C131.998 29.2277 132.214 30.7958 132.214 32.9646C132.231 34.5661 132.081 36.0842 131.764 37.5523Z" fill="white"/>
<path d="M167.266 24.6233C166.766 23.6057 165.931 22.7715 164.78 22.1209C163.612 21.4703 162.194 21.1533 160.509 21.1533C157.323 21.1533 155.104 22.4045 153.853 24.8902V21.6204H145.428V44.7758H154.52V30.8626C154.52 28.5604 155.338 27.3926 156.989 27.3926C157.556 27.3926 158.007 27.5594 158.374 27.8931C158.741 28.2267 158.924 28.9941 158.924 30.1953V44.7758H168.017V29.9617C168 27.426 167.75 25.6576 167.266 24.6233Z" fill="white"/>
<path d="M112.395 29.3946C108.107 29.3946 104.621 25.9079 104.587 21.6372H103.886V44.7926H112.979V29.3612C112.779 29.3779 112.595 29.3946 112.395 29.3946Z" fill="white"/>
<path d="M112.395 28.7941C108.424 28.7941 105.188 25.5577 105.188 21.5872C105.188 17.6168 108.424 14.3804 112.395 14.3804C116.366 14.3804 119.602 17.6168 119.602 21.5872C119.602 25.5577 116.366 28.7941 112.395 28.7941ZM112.395 18.9347C110.927 18.9347 109.742 20.1192 109.742 21.5872C109.742 23.0553 110.927 24.2398 112.395 24.2398C113.863 24.2398 115.048 23.0553 115.048 21.5872C115.048 20.1192 113.863 18.9347 112.395 18.9347Z" fill="#E22A2E"/>
<path d="M81.7479 41.4729C78.211 48.7298 70.8871 53.8346 62.2452 54.1182C49.8662 54.5186 39.3725 44.6092 39.0555 32.214C39.0055 30.479 39.1723 28.7774 39.506 27.1425C39.5727 26.8256 39.3892 26.5086 39.0889 26.3918C38.7219 26.2584 38.3215 26.4919 38.2547 26.8756C37.8877 28.6607 37.7209 30.5124 37.7876 32.4142C38.2047 45.4767 49.0154 55.7031 62.0784 55.4028C71.3042 55.1859 79.162 49.7641 82.9324 42.0234C83.0992 41.673 82.9324 41.256 82.5653 41.1225C82.215 41.0391 81.8813 41.1726 81.7479 41.4729Z" fill="#E22A2E"/>
<path fill-rule="evenodd" clip-rule="evenodd" d="M64.3641 36.1013C63.4465 36.4016 63.2297 37.3358 62.6291 38.3367C62.3788 38.7705 62.1786 39.1875 61.9284 39.6046C61.7949 39.8215 61.7115 40.005 61.578 40.2385C60.5103 42.0569 61.7615 42.2405 63.213 42.7409C63.9637 43.0079 65.4819 43.6585 66.2493 43.4416C67.1502 43.1914 67.634 42.0903 68.0344 41.2895C68.3013 40.7724 69.2356 39.0875 69.3357 38.5703C69.586 37.2357 68.2346 37.1523 67.317 36.8353C66.6163 36.5851 65.0648 35.8677 64.3641 36.1013Z" fill="#5A3288"/>
<path fill-rule="evenodd" clip-rule="evenodd" d="M58.1914 33.2653C57.3572 33.5322 56.8567 34.6499 56.3729 35.4173C54.3209 38.6704 54.3542 38.8706 56.79 40.0551C60.0599 41.6399 59.8764 41.4397 61.3946 38.8039C61.6949 38.2867 62.6792 36.7352 62.8126 36.1847C63.0962 34.9168 61.8116 34.6499 60.9775 34.2495C60.3435 33.9493 58.8587 33.0484 58.1914 33.2653Z" fill="#5A3288"/>
<path fill-rule="evenodd" clip-rule="evenodd" d="M53.62 29.0108C52.8192 29.211 52.2019 30.3621 51.7848 30.9627C51.3844 31.5299 50.6504 32.6476 50.3667 33.3149C49.7495 34.783 50.667 35.1667 51.4678 35.7006C54.7377 37.886 54.1371 37.1019 56.356 33.6319C56.5395 33.3316 56.8899 32.8312 57.0901 32.4808C57.9409 30.896 56.4561 30.6291 54.8712 29.478C54.5375 29.2444 54.1371 28.8774 53.62 29.0108Z" fill="#E62B56"/>
<path fill-rule="evenodd" clip-rule="evenodd" d="M68.101 29.0443C67.2835 29.2778 66.9666 30.2454 66.5328 31.0629C65.1314 33.7654 64.2639 34.5162 66.6162 35.3002C70.1197 36.468 70.3532 37.4523 71.9215 31.8136C72.3552 30.2788 71.7713 30.0786 70.6702 29.7283C70.053 29.5447 68.6182 28.8941 68.101 29.0443Z" fill="#5A3288"/>
<path fill-rule="evenodd" clip-rule="evenodd" d="M63.0793 26.759C62.1284 26.9926 61.6613 27.9602 61.1441 28.5441L59.5592 30.6461C58.6249 32.0307 60.1431 32.4978 60.5602 32.7147C63.4631 34.2995 63.8801 34.3996 65.0646 32.2809C65.6319 31.2633 66.9832 29.2948 66.6662 28.4773C66.466 27.9268 63.4964 26.6589 63.0793 26.759Z" fill="#E62B56"/>
<path fill-rule="evenodd" clip-rule="evenodd" d="M71.0542 38.1533C70.22 38.4035 69.8696 39.4378 69.5193 40.1719C68.1179 43.1414 66.85 43.9254 69.1356 44.4426C71.955 45.0932 72.5556 45.2934 73.7568 42.9912C74.1072 42.3072 75.5086 39.8883 75.1916 39.0541C75.0081 38.5536 74.3908 38.6204 73.9403 38.537C73.2397 38.4202 71.6381 37.9698 71.0542 38.1533Z" fill="#5A3288"/>
<path fill-rule="evenodd" clip-rule="evenodd" d="M60.3768 43.0243C59.4926 43.3579 58.8252 44.9761 58.1746 46.0271C57.9577 46.3608 57.5406 46.7612 57.7575 47.3117C57.9744 47.8622 59.3925 48.2292 60.0598 48.4461C60.9107 48.7464 61.9283 49.2135 62.8125 48.6797C63.1963 48.4461 64.1806 47.2783 64.4475 46.8779C64.8145 46.3441 65.949 45.2931 65.4485 44.5591C65.1649 44.1587 63.63 43.7583 63.0294 43.5581C62.262 43.3079 61.1776 42.724 60.3768 43.0243Z" fill="#5A3288"/>
<path fill-rule="evenodd" clip-rule="evenodd" d="M54.154 40.0885C53.47 40.3387 53.1363 41.4064 52.8193 42.1404C51.7015 44.843 51.6515 44.8263 54.3208 46.1109C56.7899 47.2953 56.7065 46.9784 58.0912 44.5427C58.4249 43.9588 59.3591 42.8077 58.7418 42.0403C58.525 41.7567 57.0235 41.1228 56.5397 40.8892C55.9557 40.6056 54.838 39.8382 54.154 40.0885Z" fill="#E62B56"/>
<path fill-rule="evenodd" clip-rule="evenodd" d="M73.373 30.7293C72.6389 31.0629 72.6056 31.847 72.3553 32.7812C71.688 35.3504 70.5869 36.6683 72.5555 37.0687C75.7754 37.736 76.3092 38.3866 76.8431 33.0148C76.9599 31.8136 76.9098 31.1797 75.8421 31.0129C75.2081 30.9295 73.8568 30.5124 73.373 30.7293Z" fill="#5A3288"/>
<path fill-rule="evenodd" clip-rule="evenodd" d="M48.2981 35.3839C47.7142 35.7175 47.4973 36.6684 47.247 37.4859C47.0302 38.1865 46.6298 39.4878 46.8466 40.2385C47.0635 40.9892 47.881 41.3562 48.4983 41.7733C50.7672 43.3081 50.5503 42.5907 51.5179 40.1717C51.7682 39.5378 52.4689 38.4701 52.1185 37.6694C51.9017 37.1856 50.8339 36.6184 50.3334 36.3014C49.883 36.0345 48.8486 35.0669 48.2981 35.3839Z" fill="#E62B56"/>
<path fill-rule="evenodd" clip-rule="evenodd" d="M49.9665 24.6403C48.9321 25.2075 46.7466 28.4773 46.5631 29.6952C46.4463 30.5126 47.1971 31.1966 47.8644 31.7972C49.3993 33.1985 49.3659 31.6804 51.7683 28.2771C52.5858 27.126 52.6024 26.709 51.8183 25.9749C51.4847 25.658 51.2511 25.4244 50.9675 25.1075C50.6672 24.7905 50.467 24.3567 49.9665 24.6403Z" fill="#F49B23"/>
<path fill-rule="evenodd" clip-rule="evenodd" d="M63.6967 49.347C64.2139 49.7807 65.3817 49.8975 66.1491 50.0143C67.9676 50.3146 69.0186 49.347 70.2699 47.8622C70.4867 47.5953 71.738 46.4609 71.4877 45.877C71.3376 45.5267 69.4858 45.3432 68.9686 45.2431C66.1324 44.6759 66.6663 45.5434 64.2139 48.2126C63.9302 48.5295 63.6133 48.7297 63.6967 49.347Z" fill="#397BBD"/>
<path fill-rule="evenodd" clip-rule="evenodd" d="M54.3876 17.9002C52.9862 18.5342 51.6849 19.5018 50.5171 20.5694C49.2826 21.6872 49.2992 22.1042 50.8341 23.4722C51.1177 23.7224 51.3346 24.0728 51.9519 23.9393C52.6359 23.7892 54.4544 21.7706 55.4887 20.9365C57.2571 19.5351 56.6565 19.5018 55.4887 18.2005C55.1384 17.7501 54.9715 17.6333 54.3876 17.9002Z" fill="#F49B23"/>
<path fill-rule="evenodd" clip-rule="evenodd" d="M79.3622 39.2376C79.3622 39.2877 79.3622 39.3377 79.3455 39.4044C79.2287 40.3053 78.1276 42.6575 77.3268 43.8753C77.16 44.1423 76.9932 44.3425 76.8597 44.4759C76.2258 45.1265 75.5751 45.1099 74.4907 45.1099C72.7056 45.1265 74.0569 43.9254 75.158 41.4564C75.475 40.7557 75.7586 39.8715 76.1423 39.3877C76.7263 38.6204 77.4937 38.904 78.5614 38.8039C79.0619 38.7538 79.4123 38.6037 79.3622 39.2376Z" fill="#397BBD"/>
<path fill-rule="evenodd" clip-rule="evenodd" d="M70.8038 23.0554C70.2866 23.1888 70.003 24.023 69.7361 24.6402C69.0187 26.2751 67.8843 27.6264 69.319 28.1602C69.953 28.3938 70.5869 28.594 71.2042 28.8109C72.9059 29.4281 72.9226 27.8099 73.0894 25.808C73.1562 24.9905 73.3063 23.9729 72.689 23.6393C72.4555 23.4891 70.9873 23.0053 70.8038 23.0554Z" fill="#5A3288"/>
<path fill-rule="evenodd" clip-rule="evenodd" d="M67.7341 21.7877C67.0168 21.9879 65.2483 23.7896 64.7312 24.3568C63.4132 25.8415 64.3308 25.9083 66.4996 26.9759C67.4172 27.4264 67.9343 26.9593 68.3014 26.3086C68.635 25.6914 68.9353 25.1075 69.269 24.4902C69.4859 24.0732 70.3034 22.9054 69.7028 22.4883C69.5526 22.3882 68.9687 22.138 68.7852 22.0546C68.4348 21.8711 68.1846 21.6709 67.7341 21.7877Z" fill="#5A3288"/>
<path fill-rule="evenodd" clip-rule="evenodd" d="M80.0129 31.6301C80.1798 32.9981 80.2465 34.8665 79.8628 37.0353C79.8127 37.1354 79.7627 37.2188 79.7126 37.3022C79.3456 37.786 78.4781 37.7359 77.7607 37.7526C76.7931 37.7693 76.6596 37.3022 76.8598 36.2512C76.9933 35.5338 77.1267 34.8498 77.2268 34.1158C77.3103 33.4485 77.3103 32.3641 77.4938 31.8136C77.7774 30.9628 78.4113 31.3131 79.3289 31.1964C79.379 31.1964 79.429 31.1797 79.4791 31.1797C79.7627 31.163 79.9963 31.3632 80.0129 31.6301Z" fill="#397BBD"/>
<path fill-rule="evenodd" clip-rule="evenodd" d="M46.0625 36.6849C45.9957 37.0186 45.8956 37.469 45.7955 37.8193C45.7789 37.8861 45.7622 37.9528 45.7455 38.0028C45.7455 38.0195 45.7455 38.0195 45.7288 38.0362C45.6788 38.2698 45.6287 38.5867 45.3618 38.6368C45.3451 38.6368 45.3284 38.6368 45.3117 38.6368C45.2617 38.6368 45.2283 38.6034 45.1783 38.5867L45.1616 38.57C44.7278 38.3198 44.0939 37.6525 43.8436 37.3189C43.2764 36.5848 43.1763 36.2845 43.3097 35.0834C43.4098 34.1992 43.5433 33.4819 43.7268 32.6978C43.8603 32.1139 44.1105 30.8127 44.8112 31.0796L46.2126 32.4809C47.5306 33.6654 46.4629 34.6997 46.0625 36.6849Z" fill="#FAC508"/>
<path fill-rule="evenodd" clip-rule="evenodd" d="M67.1169 21.4206C67.1169 21.4373 67.1002 21.4539 67.1002 21.4706V21.4873C66.7999 22.1046 65.6988 22.8886 65.0482 23.5059C64.3141 24.1899 63.3965 25.4077 62.3789 24.8071C61.845 24.4902 61.1109 24.0397 60.6772 23.6894C59.9264 23.0721 61.1109 22.3882 61.5447 22.1212C62.3955 21.6041 64.4643 20.3696 65.3818 20.2862C65.8323 20.2528 66.6331 20.7866 66.9834 21.0869C67.1002 21.187 67.1669 21.3038 67.1169 21.4206Z" fill="#E62B56"/>
<path fill-rule="evenodd" clip-rule="evenodd" d="M73.84 24.0728C73.423 24.3731 73.5564 25.4741 73.5231 26.1081C73.4897 26.8254 73.3229 27.6762 73.3062 28.3435C73.2895 29.3445 73.6732 29.528 74.4073 29.6781C76.7429 30.1953 77.4937 30.6457 76.3926 26.0413C76.2424 25.4408 76.0089 24.6567 75.6418 24.3731C75.425 24.2063 74.0569 23.906 73.84 24.0728Z" fill="#5A3288"/>
<path fill-rule="evenodd" clip-rule="evenodd" d="M55.105 50.9487C55.7056 51.4492 57.8577 52.1999 58.7419 51.9663C59.2257 51.8329 59.8764 51.3658 60.2768 51.0655C60.6438 50.7986 61.7115 50.198 61.1109 49.6475C61.0275 49.5641 57.8077 48.4296 57.524 48.3963C56.6065 48.2628 56.3562 48.7966 56.0226 49.2971C55.839 49.564 55.7056 49.7642 55.5221 50.0145C55.3052 50.3148 55.105 50.4482 55.105 50.9487Z" fill="#5A3288"/>
<path fill-rule="evenodd" clip-rule="evenodd" d="M51.7015 46.0273C51.2677 46.2776 51.2177 47.1617 51.1343 47.779C50.9341 49.4806 51.5513 49.4472 53.2197 50.2647C53.9537 50.6317 54.3708 50.7818 54.8379 50.0478C55.1215 49.5974 55.4719 49.0802 55.7055 48.6131C56.1225 47.829 55.4719 47.4954 54.938 47.2451C54.3875 46.9782 53.887 46.778 53.3698 46.4944C52.9694 46.2942 52.1686 45.7604 51.7015 46.0273Z" fill="#E62B56"/>
<path fill-rule="evenodd" clip-rule="evenodd" d="M64.7143 19.4685L64.6976 19.4852L64.6809 19.5018C64.2305 19.8355 63.5965 20.0357 63.046 20.336C59.7427 22.0543 59.4591 22.8884 57.8742 20.9699C57.307 20.2692 58.4414 19.8522 58.992 19.6186C59.6259 19.3517 60.2766 19.1181 60.9439 18.9013C61.7447 18.651 63.4798 18.0004 64.2305 18.6177C64.414 18.7678 64.6309 18.918 64.7644 19.1682V19.1849C64.781 19.285 64.8144 19.3684 64.7143 19.4685Z" fill="#E62B56"/>
<path fill-rule="evenodd" clip-rule="evenodd" d="M74.8577 45.7772C75.3082 45.7606 75.5751 46.2777 75.2915 46.6281C74.6241 47.4789 73.4063 48.5132 72.9892 48.8635C71.9715 49.6976 70.6035 50.6485 68.8518 50.2982C68.735 50.2649 68.7183 50.1981 68.735 50.1147V50.098C68.9185 49.5642 69.7693 49.0303 70.103 48.68L71.4877 47.2119C71.8214 46.8282 72.422 46.0942 73.1227 45.894C73.2394 45.8607 74.1403 45.8106 74.8577 45.7772Z" fill="#397BBD"/>
<path fill-rule="evenodd" clip-rule="evenodd" d="M46.5965 20.3693C46.3462 20.6196 46.2127 20.753 46.0459 20.9866C45.8791 21.2201 45.6956 21.4537 45.5287 21.7039C45.2117 22.1544 44.8447 22.6715 44.5945 23.222C44.1273 24.223 44.2775 24.273 44.778 24.9237C45.1116 25.3407 45.7623 26.0414 46.2795 25.6577L48.2147 22.7383C48.8987 21.7039 48.3982 21.5538 48.0145 21.1534C47.781 20.9532 47.0469 19.9189 46.5965 20.3693Z" fill="#FAC508"/>
<path fill-rule="evenodd" clip-rule="evenodd" d="M50.8339 46.4775C50.8005 46.7111 50.6504 48.5295 50.6504 48.5295C50.4001 49.1634 48.3481 47.4785 48.0811 47.0447C47.6641 46.3941 47.0968 44.2087 47.4805 43.3412C47.5139 43.2411 47.5973 43.2077 47.7975 43.2745C48.2647 43.4747 48.6651 43.7583 48.9987 43.9918C49.4158 44.2754 49.983 44.559 50.3167 44.8426C50.8005 45.2263 50.9673 45.6601 50.8339 46.4775Z" fill="#E62B56"/>
<path fill-rule="evenodd" clip-rule="evenodd" d="M79.4623 30.0789C79.4456 30.0789 79.429 30.0789 79.4123 30.0956H79.3956C78.8951 30.1957 78.0442 30.2624 77.744 30.0789C77.3436 29.812 77.2601 28.9612 77.16 28.2939C77.0766 27.7267 76.2925 24.6571 76.3592 24.4903C76.4427 24.3401 76.7596 24.2901 77.0266 24.3068C77.3436 24.3235 78.6949 25.1576 79.5958 29.495C79.6792 29.7953 79.6959 30.0122 79.4623 30.0789Z" fill="#397BBD"/>
<path fill-rule="evenodd" clip-rule="evenodd" d="M59.2424 52.2666C59.7429 52.9005 62.0786 52.9172 63.1797 52.5669C63.797 52.3834 64.3809 52.1498 64.9314 51.8829C65.482 51.616 66.3161 51.3324 66.2994 50.8152C66.0158 50.6484 64.7979 50.4982 64.3642 50.3981C62.2287 49.931 62.3622 50.2146 60.8107 51.2656C60.4436 51.5159 59.476 51.9163 59.2424 52.2666Z" fill="#5A3288"/>
<path fill-rule="evenodd" clip-rule="evenodd" d="M53.47 14.1804C53.5367 14.4807 53.4366 14.7976 53.2031 15.0145C52.2354 15.8653 50.0166 17.6003 49.4827 17.9506C49.1991 18.1508 48.9822 18.1675 48.8487 18.1008C48.6986 18.034 48.6152 17.8839 48.5484 17.7504L48.4984 17.617C48.465 17.5169 48.4483 17.4001 48.4317 17.3C48.3983 17.0164 48.5151 16.7495 48.732 16.5493L49.7997 15.5817C50.0666 15.3815 50.3169 15.1813 50.5671 15.0145C53.5034 13.0626 53.3198 13.5131 53.47 14.1804Z" fill="#FAC508"/>
<path fill-rule="evenodd" clip-rule="evenodd" d="M80.2465 36.9017C80.2132 37.1019 80.6302 37.1519 80.8304 37.1519C81.5478 37.1352 81.5478 36.5847 81.6479 36.2177C82.065 34.6829 82.0316 32.3474 81.698 30.7458C81.6479 30.5123 81.3643 30.4122 81.1808 30.5623C81.1307 30.5957 80.7971 30.8126 80.697 30.8626C80.2632 31.0795 80.2465 31.313 80.3299 31.8636C80.43 32.6143 80.5135 33.415 80.4801 34.1824C80.4634 35.0833 80.4134 36.0008 80.2465 36.9017Z" fill="#397BBD"/>
<path fill-rule="evenodd" clip-rule="evenodd" d="M62.9125 15.9984C62.9459 16.1986 62.8124 16.3988 62.6289 16.4655C61.7447 16.7658 60.7104 16.9326 59.8929 17.2162C59.3423 17.4164 58.9086 17.5499 58.3914 17.7501C57.357 18.1505 56.5896 18.5342 56.5896 17.283V17.2663C56.5896 17.2496 56.5896 17.2329 56.5896 17.2162C56.6063 17.0828 56.673 16.966 56.9066 16.8326C58.2079 16.1486 60.7938 15.5647 62.4955 15.598C62.7123 15.6314 62.8792 15.7982 62.9125 15.9984Z" fill="#F49B23"/>
<path fill-rule="evenodd" clip-rule="evenodd" d="M46.0625 45.3432C46.0459 45.3765 46.0125 45.4099 45.9958 45.4433C45.8957 45.5267 45.7456 45.5434 45.6455 45.4433C45.4119 45.2264 45.1783 44.9595 45.0782 44.826C44.2774 43.8417 43.1763 40.8722 43.3932 39.8379C43.4266 39.5877 43.5767 39.6711 43.6935 39.8046C43.6935 39.8046 43.6935 39.8046 43.7102 39.8212L43.7269 39.8379C43.7436 39.8546 43.7436 39.8546 43.7603 39.888C43.8103 39.938 43.9438 40.1215 44.0105 40.2049C44.3775 40.6554 44.7612 40.9056 45.0615 41.2559C45.6621 41.8065 45.7122 43.1744 45.8457 44.0253C45.9624 44.8093 46.2794 44.9762 46.0625 45.3432Z" fill="#F49B23"/>
<path fill-rule="evenodd" clip-rule="evenodd" d="M46.0618 45.3433C46.0453 45.3933 46.0288 45.4267 45.9958 45.4434C46.0123 45.41 46.0288 45.3766 46.0618 45.3433Z" fill="#F49B23"/>
<path fill-rule="evenodd" clip-rule="evenodd" d="M81.2809 29.261C81.2809 29.3778 80.8972 29.5947 80.7804 29.6614C80.2799 29.9283 80.0964 29.8283 79.9463 29.4779C79.8295 28.9774 79.6626 28.3602 79.6626 28.3602C78.8785 25.691 78.1278 24.8235 78.011 24.5732C77.9443 24.4064 77.8942 24.2563 77.961 24.1895C77.961 24.1895 77.961 24.1729 77.9776 24.1729C78.011 24.1395 78.0611 24.0895 78.1278 24.0561L78.1445 24.0394C78.1445 24.0394 78.1445 24.0394 78.1612 24.0227L78.3447 23.9059C78.4615 23.8225 78.6283 23.8392 78.7451 23.9393C79.5292 24.7234 81.2142 27.7263 81.2809 29.261Z" fill="#397BBD"/>
<path fill-rule="evenodd" clip-rule="evenodd" d="M79.9796 38.3034C80.013 38.22 80.0631 38.1699 80.1465 38.1533C80.4801 38.0865 81.2142 38.1866 81.1475 38.4035C80.8138 39.4879 80.0964 40.9559 79.7794 41.6065C79.379 42.4073 78.6617 43.9921 77.961 44.6261C77.8775 44.6928 77.7775 44.7095 77.6774 44.6761C77.6106 44.6428 77.5272 44.5927 77.4605 44.5594C77.3937 44.5093 77.3604 44.4426 77.3771 44.3592C77.5105 43.8253 77.9776 43.1747 78.2112 42.741C78.5115 42.1737 78.8285 41.5398 79.0954 40.9059C79.7794 39.0041 79.8795 38.6037 79.9796 38.3034Z" fill="#397BBD"/>
<path fill-rule="evenodd" clip-rule="evenodd" d="M70.5201 7.14021C71.4711 6.90666 71.9382 5.93907 72.4554 5.35518L74.0403 3.25318C74.9745 1.86853 73.4564 1.40141 73.0393 1.18454C70.1364 -0.400301 69.7193 -0.500396 68.5348 1.61829C67.9676 2.63592 66.6162 4.60447 66.9165 5.42191C67.1334 5.97243 70.0863 7.24031 70.5201 7.14021Z" fill="#E62B56"/>
<path fill-rule="evenodd" clip-rule="evenodd" d="M77.7441 7.69075C78.7784 7.12355 80.9639 3.85377 81.1474 2.63594C81.2642 1.81849 80.5135 1.13451 79.8462 0.533937C78.3113 -0.867398 78.3447 0.650715 75.9423 4.05396C75.1248 5.20505 75.1081 5.62212 75.8922 6.33947C76.2259 6.65644 76.4595 6.88999 76.7431 7.20696C77.0434 7.54061 77.2269 7.95768 77.7441 7.69075Z" fill="#F49B23"/>
<path fill-rule="evenodd" clip-rule="evenodd" d="M73.3229 14.4307C74.7243 13.7967 76.0256 12.8292 77.1934 11.7615C78.4113 10.6437 78.4113 10.2267 76.8598 8.87539C76.5762 8.62516 76.3593 8.27482 75.742 8.40828C75.058 8.55842 73.2395 10.577 72.2052 11.4111C70.4367 12.8125 71.0373 12.8458 72.2052 14.1471C72.5555 14.5641 72.7223 14.6976 73.3229 14.4307Z" fill="#F49B23"/>
<path fill-rule="evenodd" clip-rule="evenodd" d="M66.1492 10.2097C65.2983 10.7268 63.2296 11.9613 62.312 12.0447C61.9283 12.0781 61.2777 11.6777 60.8773 11.3774L60.8606 11.3608C60.8439 11.3608 60.8439 11.3441 60.8272 11.3441C60.5937 11.1439 60.5937 10.8436 60.7271 10.6434C61.1275 10.0595 62.0785 9.37553 62.6624 8.84169C63.3965 8.1577 64.314 6.93988 65.3317 7.54045C65.8656 7.85742 66.5996 8.30785 67.0334 8.65818C67.7841 9.24207 66.5996 9.92605 66.1492 10.2097Z" fill="#E62B56"/>
<path fill-rule="evenodd" clip-rule="evenodd" d="M83.116 9.09204C82.8658 9.64257 82.4987 10.1597 82.1818 10.6102C81.9982 10.8604 81.8314 11.0939 81.6646 11.3275C81.4811 11.5777 81.3476 11.7112 81.114 11.9614C80.9305 12.1449 80.6969 12.0782 80.4634 11.9281C80.2298 11.8113 79.6793 11.2107 79.3623 10.8604C79.112 10.6102 78.9953 10.3266 79.4958 9.59252L81.431 6.67307C81.9482 6.28937 82.5988 6.99004 82.9325 7.4071C83.433 8.04104 83.5665 8.09109 83.116 9.09204Z" fill="#FAC508"/>
<path fill-rule="evenodd" clip-rule="evenodd" d="M79.1453 15.6316L77.894 16.7493C77.6438 16.9495 77.3769 17.133 77.1433 17.2998C74.1737 19.285 74.3906 18.8012 74.2237 18.1173C74.157 17.817 74.2237 17.5 74.4406 17.2998C74.9745 16.7826 75.7252 16.3823 76.4259 15.8818C77.2434 15.3146 78.0108 14.4805 78.7282 14.2469C78.7282 14.2469 78.7282 14.2469 78.7449 14.2469C78.9117 14.1969 79.0285 14.2636 79.0952 14.4137C79.0952 14.4304 79.1119 14.4471 79.1119 14.4638C79.2621 14.8475 79.3622 15.2812 79.1453 15.6316Z" fill="#FAC508"/>
<path fill-rule="evenodd" clip-rule="evenodd" d="M71.1208 15.1144C71.1208 15.1311 71.1208 15.1311 71.1208 15.1478C71.1208 15.1812 71.1208 15.1978 71.1208 15.2312C71.1208 15.2646 71.0875 15.2979 71.0374 15.348C71.0374 15.348 71.0374 15.348 71.0207 15.348C71.004 15.3647 70.9707 15.3813 70.954 15.3813C69.6694 16.1321 66.7999 16.7827 65.0314 16.6993C64.9147 16.6993 64.8312 16.6159 64.8146 16.4991L64.7645 16.1654C64.7478 16.0653 64.8146 15.9485 64.9147 15.9152C65.8322 15.5815 66.9333 15.4147 67.8176 15.0977C68.3681 14.8975 68.8019 14.7641 69.319 14.5639C70.3868 14.1635 71.1542 13.7798 71.1208 15.1144Z" fill="#F49B23"/>
<path fill-rule="evenodd" clip-rule="evenodd" d="M86.0355 10.8439C86.0355 10.8439 86.0355 10.8606 86.0355 10.8439C86.0188 10.8606 86.0188 10.8606 86.0188 10.8773C86.0188 10.8773 86.0188 10.8773 86.0188 10.894C85.9354 11.0274 85.7018 11.4111 85.4516 11.7948L84.8343 12.7124C84.8009 12.7791 84.7509 12.8292 84.7175 12.8792C84.5173 13.1294 84.3004 12.8292 84.217 12.5789C84.217 12.5622 84.217 12.5622 84.2003 12.5455C84.1836 12.4455 84.1503 12.3787 84.1503 12.3454C84.0001 11.6947 84.6174 11.0608 85.0011 10.4102C85.5016 9.59273 85.6351 9.22572 86.0021 8.54173C86.0688 8.40827 86.1356 8.30818 86.2023 8.24145C86.3024 8.15803 86.4526 8.10799 86.586 8.34154C86.8863 9.05889 86.4859 10.0598 86.0355 10.8439Z" fill="#F49B23"/>
<path fill-rule="evenodd" clip-rule="evenodd" d="M42.6926 21.9207C42.1921 22.7382 42.0586 23.1052 41.6916 23.7892C41.6248 23.906 41.5748 23.9894 41.5247 24.0561C41.4914 24.1062 41.458 24.1395 41.4246 24.1395C41.2912 24.1896 41.141 24.0394 41.091 23.8392C40.8074 22.855 41.6582 21.437 42.142 20.7196L42.8928 19.5852C42.9428 19.5185 42.9762 19.4517 43.0262 19.4017C43.143 19.2349 43.4099 19.3016 43.46 19.5018C43.51 19.6853 43.5601 19.9022 43.5768 19.9689C43.7102 20.6362 43.093 21.2701 42.6926 21.9207Z" fill="#F49B23"/>
<path d="M159.091 52.4834C157.39 54.0515 155.971 55.9533 153.719 56.8542C153.402 56.971 152.935 57.0711 152.702 56.9209C152.451 56.7541 152.334 56.287 152.301 55.9366C152.151 54.3018 153.102 53.1006 154.019 51.8995C154.22 51.6326 154.387 51.3323 154.47 50.9486C153.652 51.4991 152.835 52.0329 152.034 52.6001C151.534 52.9672 149.115 54.5353 148.381 54.9357C147.897 55.2026 147.463 55.5363 146.962 55.7698C146.228 56.1035 145.478 56.5372 144.71 56.6206C143.893 56.7207 142.642 56.9042 141.707 55.6864C141.107 54.9357 141.34 53.6678 141.807 52.8003C142.124 52.2164 142.808 51.1488 143.492 50.3647C144.293 49.4805 145.194 48.5129 146.729 47.9457C147.33 47.7288 148.197 47.4619 148.964 47.3785C149.498 47.3118 150.116 47.4119 150.616 47.6121C151.183 47.8456 151.3 48.4629 150.883 48.9133C150.316 49.4972 149.665 49.9977 148.981 50.4481C147.897 51.1654 146.779 51.8494 145.661 52.5167C144.927 52.9505 144.143 53.3008 143.459 53.8013C143.192 53.9848 142.875 55.0525 143.793 55.0358C145.144 54.869 146.278 54.2183 147.53 53.6178C148.698 53.0506 149.932 52.2498 151.1 51.5325C151.617 51.2155 153.152 50.1978 153.419 50.0143C154.303 49.4305 155.137 48.7965 156.021 48.2293C156.505 47.9123 156.906 47.1783 157.656 47.7455C158.074 48.0625 158.04 49.1468 157.556 49.8142C156.806 50.8318 156.005 51.7994 155.254 52.8003C155.004 53.134 154.787 53.4843 154.587 53.8346C154.503 53.9848 154.336 54.2517 154.42 54.3351C154.487 54.4686 154.804 54.3184 154.954 54.235C155.237 54.0682 155.504 53.8346 155.771 53.6345C156.288 53.2174 156.822 52.817 157.306 52.3833C157.79 51.9328 158.257 51.4657 158.707 50.9819C159.558 50.0811 160.342 49.1135 161.227 48.246C161.594 47.879 162.545 48.6297 162.495 49.347C162.461 49.8642 162.194 50.3814 161.977 50.8652C161.544 51.7827 161.06 52.6669 160.609 53.5677C160.609 53.5844 160.292 54.4352 160.426 54.5353C160.709 54.6521 161.16 54.3518 161.51 54.2017C163.179 53.451 164.346 52.133 165.297 50.6483C165.498 50.348 165.331 49.8475 165.431 49.4638C165.564 48.9633 165.714 48.3961 166.048 48.0625C166.265 47.8456 166.932 47.879 167.249 48.0625C167.833 48.3795 168.15 49.0134 167.867 49.664C167.566 50.348 167.166 50.9986 166.715 51.5825C166.015 52.5 165.347 53.4843 164.48 54.2183C163.429 55.1359 162.261 56.0034 161.01 56.5706C159.425 57.3046 158.207 56.1535 158.541 54.3852C158.707 53.7345 158.908 53.1173 159.091 52.4834ZM144.794 51.5992C144.794 51.6492 145.027 51.5325 145.094 51.4991C146.345 50.6983 147.596 49.8809 148.831 49.0634C148.864 49.0301 148.898 49.0134 148.898 48.8966C148.848 48.7798 148.731 48.8466 148.647 48.8632C148.23 48.98 147.797 49.0468 147.413 49.2469C146.362 49.7641 145.311 50.3313 144.794 51.5992Z" fill="#F29120"/>
<path d="M131.364 50.2311C130.746 50.548 130.079 50.8316 129.512 51.2153C128.711 51.7492 127.944 52.3164 127.226 52.9503C126.442 53.6343 125.725 54.4017 124.957 55.1024C124.19 55.8197 123.439 56.5537 122.605 57.1877C122.421 57.3211 121.771 57.1209 121.587 56.8874C120.853 55.9365 120.803 54.9355 121.454 53.8512C122.071 52.8168 122.605 51.7325 123.156 50.6815C123.206 50.5814 123.272 50.3645 123.189 50.3145C123.089 50.2978 122.972 50.3979 122.889 50.4646C122.054 51.0485 121.237 51.6324 120.403 52.1996C120.336 52.2496 120.169 52.2663 120.102 52.1829C119.936 51.9327 119.786 51.4656 119.902 51.2987C120.203 50.8817 120.62 50.5147 121.053 50.2311C121.888 49.6638 122.755 49.1467 123.639 48.6629C124.14 48.396 124.674 48.1624 125.224 48.0623C125.875 47.9289 126.342 48.813 125.992 49.6472C125.491 50.8149 124.857 51.916 124.323 53.0504C124.14 53.4508 124.023 53.8845 123.873 54.3016C123.856 54.335 123.873 54.4017 123.906 54.4351C123.973 54.5018 124.14 54.3683 124.223 54.2849C124.54 53.9846 124.841 53.6677 125.174 53.3841C126.843 51.8659 128.494 50.3311 130.213 48.8798C130.796 48.3793 131.547 48.029 132.265 47.762C132.848 47.5452 133.432 48.0957 133.482 48.7129C133.532 49.3469 132.932 50.1143 132.381 50.1643C132.064 50.1977 131.731 50.4479 131.547 50.4479C131.447 50.3812 131.38 50.2811 131.364 50.2311Z" fill="#F29120"/>
<path d="M133.516 55.8865C133.432 54.2182 134.233 52.8836 135.101 51.5824C135.318 51.2487 135.535 50.9151 135.735 50.5814C135.768 50.5314 135.818 50.4813 135.768 50.3979C135.735 50.3312 135.668 50.3479 135.635 50.3812C134.951 50.7149 134.25 51.0319 133.583 51.3989C132.999 51.7325 132.482 52.1663 131.898 52.5166C131.764 52.6 131.497 52.6 131.397 52.5166C131.297 52.4332 131.297 52.183 131.314 52.0161C131.43 50.9318 132.448 50.6482 133.132 50.1477C134.317 49.2802 135.601 48.5462 136.886 47.8455C137.153 47.6953 137.753 47.7621 137.954 47.9623C138.254 48.2792 138.571 48.8965 138.437 49.1968C137.954 50.3145 137.253 51.3321 136.686 52.4165C136.435 52.8836 136.118 53.601 136.135 53.9346C136.135 53.9847 136.185 54.0848 136.219 54.1014C136.385 54.2015 136.552 54.1181 136.669 54.0347C138.054 53.1672 139.422 52.2997 140.806 51.4322C140.957 51.3321 141.19 51.2154 141.374 51.2988C141.507 51.499 141.424 51.7492 141.324 51.8994C140.857 52.5333 140.439 53.2673 139.839 53.7344C138.721 54.6019 137.503 55.3693 136.269 56.1034C135.751 56.4203 135.117 56.5871 134.517 56.754C134 56.9208 133.483 56.437 133.516 55.8865Z" fill="#F29120"/>
<path d="M140.873 44.6758C141.007 45.8269 140.106 46.7278 139.488 46.5609C139.155 46.4608 138.738 45.9604 138.721 45.61C138.638 44.4589 139.272 43.7249 140.206 43.8917C140.523 43.9585 140.806 44.3255 140.873 44.6758Z" fill="#F29120"/>
</svg>
