<svg width="35" height="35" viewBox="0 0 35 35" fill="none" xmlns="http://www.w3.org/2000/svg">
<circle cx="17.5" cy="17.5" r="17.5" fill="url(#paint0_linear_111_1856)"/>
<path d="M21.9047 26.1794C16.3614 26.3669 6.37514 16.461 11.0117 11.0902L11.7957 10.4084C12.1926 10.0248 12.7246 9.81285 13.2765 9.81847C13.8285 9.82408 14.356 10.0468 14.745 10.4384C14.766 10.4599 14.7856 10.4826 14.8036 10.5066L16.0308 12.1012C16.4037 12.4959 16.6109 13.0186 16.6096 13.5615C16.6084 14.1045 16.3987 14.6262 16.024 15.0191L15.2345 16.0118C15.6716 17.0733 16.314 18.038 17.1249 18.8507C17.9357 19.6633 18.8991 20.3078 19.9597 20.7472L20.9578 19.9529C21.3558 19.5874 21.8762 19.3843 22.4166 19.3835C22.957 19.3828 23.478 19.5845 23.877 19.9489L25.4723 21.176C25.4962 21.194 25.5189 21.2133 25.5405 21.234C25.9339 21.631 26.1547 22.1674 26.1547 22.7263C26.1547 23.2853 25.9339 23.8216 25.5405 24.2187L24.9194 24.9345C24.5255 25.3327 24.0558 25.6481 23.538 25.8619C23.0202 26.0757 22.4649 26.1836 21.9047 26.1794ZM13.2526 11.1809C13.1547 11.1808 13.0576 11.2 12.9671 11.2375C12.8766 11.2749 12.7943 11.3298 12.725 11.399L11.9403 12.0808C8.09111 16.7085 19.8697 27.8313 23.9213 24.0032L24.5431 23.2867C24.617 23.2209 24.6772 23.1412 24.7201 23.052C24.7631 22.9629 24.788 22.8661 24.7933 22.7673C24.7987 22.6685 24.7845 22.5697 24.7515 22.4764C24.7185 22.3831 24.6674 22.2973 24.6011 22.2239L23.0146 21.0056C22.9903 20.9877 22.9675 20.9679 22.9464 20.9463C22.8042 20.8107 22.6153 20.7351 22.4188 20.7351C22.2223 20.7351 22.0333 20.8107 21.8911 20.9463C21.873 20.9646 21.8539 20.9819 21.8338 20.9981L20.499 22.0616C20.4063 22.1354 20.296 22.1837 20.179 22.2019C20.0619 22.22 19.9422 22.2074 19.8315 22.1652C18.4572 21.6532 17.209 20.8519 16.1714 19.8154C15.1339 18.7789 14.3312 17.5314 13.8178 16.1576C13.7724 16.0454 13.7576 15.9231 13.7751 15.8033C13.7926 15.6835 13.8417 15.5705 13.9173 15.4759L14.9768 14.1424C14.9925 14.1222 15.0096 14.1031 15.0279 14.0851C15.1672 13.9447 15.2453 13.7549 15.2453 13.5571C15.2453 13.3593 15.1672 13.1695 15.0279 13.0291C15.0067 13.0079 14.9871 12.9851 14.9693 12.9609L13.7537 11.3765C13.6164 11.2524 13.4377 11.1839 13.2526 11.1843V11.1809Z" fill="white" stroke="white" stroke-width="0.25"/>
<defs>
<linearGradient id="paint0_linear_111_1856" x1="0" y1="0" x2="36.6244" y2="2.7977" gradientUnits="userSpaceOnUse">
<stop stop-color="#7B34D8"/>
<stop offset="1" stop-color="#3948A5"/>
</linearGradient>
</defs>
</svg>
