<svg width="22" height="20" viewBox="0 0 22 20" fill="none" xmlns="http://www.w3.org/2000/svg">
<path d="M17.7048 11.0131L7.9834 9.54761L9.27213 15.1203L17.7048 11.0131Z" fill="#D12053"/>
<path d="M17.7049 11.0132L10.3795 1.22217L7.98535 9.54948L17.7049 11.0132Z" fill="#E2136E"/>
<path d="M7.75757 9.43656L0.0820312 0L10.1334 1.1551L7.75757 9.43656Z" fill="#D12053"/>
<path d="M4.26215 5.49337L0 1.62952H1.12191L4.26215 5.49337Z" fill="#9E1638"/>
<path d="M19.7786 6.25342L17.9747 10.9602L15.0508 7.06993L19.7786 6.25342Z" fill="#D12053"/>
<path d="M10.4072 14.8383L17.4852 12.1031L17.7821 11.2336L10.4072 14.8383Z" fill="#E2136E"/>
<path d="M4.74609 20L7.77818 9.76807L9.31622 16.4253L4.74609 20Z" fill="#9E1638"/>
<path d="M20.0607 6.29041L19.3164 8.2338L22.0002 8.19147L20.0607 6.29041Z" fill="#E2136E"/>
</svg>
