<svg width="22" height="20" viewBox="0 0 22 20" fill="none" xmlns="http://www.w3.org/2000/svg">
<path d="M9.4221 19.2933L2.47571 14.3699C2.14656 14.1367 2.08891 13.705 2.34663 13.4066L13.7014 0.263226C13.9591 -0.0348214 14.4341 -0.0879464 14.7628 0.145257L21.7096 5.0687C22.0388 5.3019 22.0964 5.73354 21.8387 6.03198L10.4835 19.1753C10.2262 19.4738 9.75124 19.5265 9.4221 19.2933Z" fill="#57AD7B"/>
<path d="M5.03564 19.696L0.128206 13.0565C-0.104559 12.7417 -0.0116252 12.3151 0.336017 12.1042L15.6331 2.80537C15.9799 2.59444 16.4493 2.67842 16.6821 2.99287L21.5895 9.63272C21.8223 9.94756 21.7294 10.3741 21.3817 10.5851L6.0846 19.8835C5.73738 20.0944 5.26798 20.0105 5.03564 19.696Z" fill="#81CDA1"/>
<path d="M21.5898 9.63272L16.6823 2.99287C16.45 2.67842 15.9806 2.59444 15.6334 2.80537L15.0379 3.16709L19.8171 9.63272C20.0499 9.94756 19.957 10.3741 19.6093 10.5851L4.90723 19.5218L5.0363 19.696C5.26864 20.0105 5.73804 20.0944 6.08525 19.8835L21.3828 10.5851C21.7296 10.3737 21.8225 9.94756 21.5898 9.63272Z" fill="#60BF88"/>
<path d="M14.8838 11.563C15.0129 9.54628 13.3147 7.81631 11.0908 7.69901C8.86686 7.5817 6.95941 9.12148 6.83035 11.1382C6.7013 13.1549 8.39951 14.8849 10.6234 15.0022C12.8473 15.1195 14.7548 13.5797 14.8838 11.563Z" fill="#29795D"/>
<path d="M2.42961 10.8315C3.43768 12.1952 3.03583 14.0417 1.5321 14.9554L0.12777 13.0558C-0.104565 12.7413 -0.0112007 12.3151 0.336011 12.1042L2.42961 10.8315Z" fill="#29795D"/>
<path d="M3.63574 17.8015C5.14248 16.8855 7.17929 17.2464 8.18521 18.6069L6.08602 19.8831C5.73881 20.0944 5.26854 20.0105 5.03621 19.696L3.63574 17.8015Z" fill="#29795D"/>
<path d="M19.2899 11.8589C18.2818 10.4953 18.6837 8.64878 20.1874 7.73511L21.5918 9.63511C21.8241 9.94956 21.7307 10.3757 21.3835 10.5867L19.2899 11.8589Z" fill="#29795D"/>
<path d="M18.0836 4.88902C16.5769 5.80503 14.5401 5.4441 13.5342 4.08355L15.6334 2.80738C15.9806 2.59605 16.4508 2.68003 16.6832 2.99449L18.0836 4.88902Z" fill="#29795D"/>
<path d="M15.9216 8.56902C15.8145 8.56902 15.7091 8.52214 15.645 8.43503C15.543 8.29636 15.5839 8.10925 15.7362 8.01628L17.301 7.06511C17.4533 6.97253 17.6603 7.00964 17.7622 7.14792C17.8642 7.28659 17.8233 7.4737 17.671 7.56667L16.1062 8.51785C16.0494 8.55261 15.9849 8.56902 15.9216 8.56902Z" fill="#29795D"/>
<path d="M4.23218 15.6748C4.12505 15.6748 4.01963 15.628 3.95553 15.5409C3.85356 15.4022 3.89443 15.2151 4.04674 15.1221L5.61156 14.1709C5.76387 14.0784 5.97039 14.1155 6.07279 14.2538C6.17475 14.3924 6.13388 14.5795 5.98157 14.6725L4.41675 15.6237C4.35996 15.658 4.29585 15.6748 4.23218 15.6748Z" fill="#29795D"/>
<path d="M12.1395 13.3628L11.4081 13.3523L10.1483 11.598L9.67158 11.8863L9.31705 11.4031L9.79377 11.1148L9.41042 10.5921C9.3007 10.4421 9.21035 10.3886 9.14022 10.4308C9.09074 10.4609 9.04384 10.5511 8.99996 10.7023L8.46387 10.4828C8.50345 10.1613 8.60241 9.95307 8.75988 9.85776C9.22025 9.57964 9.65652 9.72143 10.0687 10.2832C10.2279 10.5003 10.3303 10.6601 10.3755 10.7628L10.8152 10.4972L11.1529 10.9582L10.7132 11.2238L11.8013 12.7074C12.3353 12.1035 12.4966 11.6574 12.2849 11.3687C12.1941 11.2453 12.093 11.2167 11.9816 11.2843C11.9403 11.3093 11.8887 11.4296 11.8267 11.6457L11.2558 11.4636C11.1856 11.1492 11.3078 10.8968 11.6215 10.7074C11.8237 10.5851 12.0427 10.555 12.2789 10.6175C12.5151 10.6796 12.7018 10.8042 12.8387 10.991C13.2908 11.607 13.0577 12.3976 12.1395 13.3628Z" fill="#81CDA1"/>
</svg>
