<svg width="24" height="24" viewBox="0 0 24 24" fill="none" xmlns="http://www.w3.org/2000/svg">
<path fill-rule="evenodd" clip-rule="evenodd" d="M9.2358 10.6558C10.013 11.1751 10.9268 11.4523 11.8615 11.4523C13.1145 11.4509 14.3158 10.9525 15.2018 10.0665C16.0879 9.18045 16.5862 7.97915 16.5876 6.72613C16.5876 5.79139 16.3104 4.87764 15.7911 4.10043C15.2718 3.32323 14.5337 2.71747 13.6701 2.35976C12.8065 2.00205 11.8563 1.90845 10.9395 2.09081C10.0227 2.27317 9.18058 2.72329 8.51962 3.38425C7.85866 4.04521 7.40853 4.88733 7.22618 5.80411C7.04382 6.72089 7.13741 7.67115 7.49512 8.53474C7.85283 9.39833 8.45859 10.1364 9.2358 10.6558ZM9.96516 3.88806C10.5265 3.513 11.1864 3.31282 11.8615 3.31282C12.7664 3.31386 13.634 3.67381 14.2739 4.3137C14.9138 4.9536 15.2738 5.82118 15.2748 6.72613C15.2748 7.40122 15.0746 8.06115 14.6996 8.62247C14.3245 9.18378 13.7914 9.62128 13.1677 9.87962C12.544 10.138 11.8577 10.2056 11.1956 10.0739C10.5335 9.94216 9.92528 9.61707 9.44792 9.13971C8.97056 8.66235 8.64547 8.05415 8.51376 7.39204C8.38206 6.72992 8.44966 6.04361 8.708 5.41991C8.96635 4.79621 9.40384 4.26312 9.96516 3.88806ZM19.6024 21.8077C19.7255 21.9308 19.8925 22 20.0666 22C20.2407 22 20.4076 21.9308 20.5307 21.8077C20.6538 21.6846 20.723 21.5177 20.723 21.3436V19.7209C20.7211 18.1264 20.0867 16.5977 18.9592 15.4703C17.8316 14.3428 16.3029 13.7087 14.7083 13.7069H9.014C7.41957 13.7089 5.891 14.3431 4.76357 15.4705C3.63614 16.5979 3.00191 18.1265 3 19.7209V21.3436C3 21.5177 3.06916 21.6846 3.19226 21.8077C3.31536 21.9308 3.48232 22 3.65641 22C3.8305 22 3.99746 21.9308 4.12056 21.8077C4.24366 21.6846 4.31281 21.5177 4.31281 21.3436V19.7209C4.3142 18.4745 4.80995 17.2796 5.69129 16.3982C6.57263 15.5169 7.76759 15.0211 9.014 15.0198H14.709C15.9554 15.0211 17.1503 15.5169 18.0317 16.3982C18.913 17.2796 19.4088 18.4745 19.4102 19.7209V21.3436C19.4102 21.5177 19.4793 21.6846 19.6024 21.8077Z" fill="black"/>
<path d="M11.8615 11.4523V11.8523L11.8619 11.8523L11.8615 11.4523ZM15.2018 10.0665L15.4847 10.3493L15.2018 10.0665ZM16.5876 6.72613L16.9876 6.72657V6.72613H16.5876ZM15.7911 4.10043L15.4585 4.32266V4.32266L15.7911 4.10043ZM13.6701 2.35976L13.8232 1.99021V1.99021L13.6701 2.35976ZM10.9395 2.09081L10.8614 1.6985L10.9395 2.09081ZM8.51962 3.38425L8.80246 3.6671V3.6671L8.51962 3.38425ZM7.22618 5.80411L6.83386 5.72607L7.22618 5.80411ZM7.49512 8.53474L7.86467 8.38167L7.49512 8.53474ZM11.8615 3.31282L11.862 2.91282H11.8615V3.31282ZM9.96516 3.88806L9.74293 3.55547L9.96516 3.88806ZM14.2739 4.3137L13.9911 4.59655V4.59655L14.2739 4.3137ZM15.2748 6.72613H15.6748L15.6748 6.72567L15.2748 6.72613ZM14.6996 8.62247L15.0321 8.8447L14.6996 8.62247ZM13.1677 9.87962L13.0146 9.51007L13.1677 9.87962ZM11.1956 10.0739L11.2736 9.68155L11.1956 10.0739ZM9.44792 9.13971L9.73076 8.85687L9.44792 9.13971ZM8.51376 7.39204L8.90608 7.314L8.51376 7.39204ZM8.708 5.41991L9.07755 5.57299V5.57299L8.708 5.41991ZM20.723 19.7209H21.123V19.7205L20.723 19.7209ZM18.9592 15.4703L18.6763 15.7531L18.9592 15.4703ZM14.7083 13.7069L14.7088 13.3069H14.7083V13.7069ZM9.014 13.7069V13.3069L9.01352 13.3069L9.014 13.7069ZM4.76357 15.4705L4.48073 15.1877H4.48073L4.76357 15.4705ZM3 19.7209L2.6 19.7205V19.7209H3ZM3.19226 21.8077L2.90941 22.0906H2.90941L3.19226 21.8077ZM4.12056 21.8077L3.83771 21.5249H3.83771L4.12056 21.8077ZM4.31281 19.7209L3.91281 19.7205V19.7209H4.31281ZM9.014 15.0198V14.6198L9.01355 14.6198L9.014 15.0198ZM14.709 15.0198L14.7094 14.6198H14.709V15.0198ZM19.4102 19.7209H19.8102V19.7205L19.4102 19.7209ZM11.8615 11.0523C11.0059 11.0523 10.1695 10.7985 9.45803 10.3232L9.01357 10.9884C9.85656 11.5516 10.8476 11.8523 11.8615 11.8523V11.0523ZM14.919 9.78363C14.1079 10.5947 13.0081 11.051 11.8611 11.0523L11.8619 11.8523C13.2209 11.8508 14.5238 11.3102 15.4847 10.3493L14.919 9.78363ZM16.1876 6.72569C16.1863 7.87278 15.7301 8.97252 14.919 9.78363L15.4847 10.3493C16.4456 9.38839 16.9861 8.08553 16.9876 6.72657L16.1876 6.72569ZM15.4585 4.32266C15.9339 5.03409 16.1876 5.8705 16.1876 6.72613H16.9876C16.9876 5.71228 16.687 4.72119 16.1237 3.87821L15.4585 4.32266ZM13.517 2.72931C14.3075 3.05674 14.9832 3.61123 15.4585 4.32266L16.1237 3.87821C15.5604 3.03522 14.7599 2.37819 13.8232 1.99021L13.517 2.72931ZM11.0175 2.48313C11.8567 2.3162 12.7265 2.40187 13.517 2.72931L13.8232 1.99021C12.8865 1.60222 11.8558 1.50071 10.8614 1.6985L11.0175 2.48313ZM8.80246 3.6671C9.40748 3.06208 10.1783 2.65005 11.0175 2.48313L10.8614 1.6985C9.86706 1.89629 8.95368 2.38451 8.23677 3.10141L8.80246 3.6671ZM7.61849 5.88214C7.78541 5.04296 8.19744 4.27212 8.80246 3.6671L8.23677 3.10141C7.51987 3.81831 7.03165 4.7317 6.83386 5.72607L7.61849 5.88214ZM7.86467 8.38167C7.53724 7.59117 7.45157 6.72133 7.61849 5.88214L6.83386 5.72607C6.63607 6.72044 6.73758 7.75114 7.12557 8.68782L7.86467 8.38167ZM9.45803 10.3232C8.7466 9.84781 8.19211 9.17217 7.86467 8.38167L7.12557 8.68782C7.51355 9.62449 8.17058 10.4251 9.01357 10.9884L9.45803 10.3232ZM11.8615 2.91282C11.1073 2.91282 10.37 3.13646 9.74293 3.55547L10.1874 4.22065C10.6829 3.88954 11.2655 3.71282 11.8615 3.71282V2.91282ZM14.5568 4.03086C13.842 3.31606 12.8728 2.91398 11.862 2.91282L11.861 3.71282C12.6601 3.71374 13.4261 4.03155 13.9911 4.59655L14.5568 4.03086ZM15.6748 6.72567C15.6736 5.7148 15.2716 4.74566 14.5568 4.03086L13.9911 4.59655C14.5561 5.16154 14.8739 5.92757 14.8748 6.72659L15.6748 6.72567ZM15.0321 8.8447C15.4512 8.2176 15.6748 7.48033 15.6748 6.72613H14.8748C14.8748 7.32211 14.6981 7.9047 14.367 8.40024L15.0321 8.8447ZM13.3208 10.2492C14.0176 9.96055 14.6131 9.47179 15.0321 8.8447L14.367 8.40024C14.0359 8.89578 13.5653 9.282 13.0146 9.51007L13.3208 10.2492ZM11.1176 10.4662C11.8573 10.6133 12.624 10.5378 13.3208 10.2492L13.0146 9.51007C12.464 9.73814 11.8582 9.79781 11.2736 9.68155L11.1176 10.4662ZM9.16507 9.42255C9.69837 9.95585 10.3778 10.319 11.1176 10.4662L11.2736 9.68155C10.6891 9.56528 10.1522 9.27829 9.73076 8.85687L9.16507 9.42255ZM8.12145 7.47007C8.26859 8.20978 8.63177 8.88925 9.16507 9.42255L9.73076 8.85687C9.30934 8.43545 9.02235 7.89853 8.90608 7.314L8.12145 7.47007ZM8.33845 5.26684C8.04983 5.96363 7.97431 6.73036 8.12145 7.47007L8.90608 7.314C8.78981 6.72947 8.84948 6.1236 9.07755 5.57299L8.33845 5.26684ZM9.74293 3.55547C9.11583 3.97449 8.62707 4.57005 8.33845 5.26684L9.07755 5.57299C9.30562 5.02237 9.69185 4.55176 10.1874 4.22065L9.74293 3.55547ZM20.0666 21.6C19.9986 21.6 19.9333 21.573 19.8853 21.5249L19.3196 22.0906C19.5177 22.2887 19.7864 22.4 20.0666 22.4V21.6ZM20.2479 21.5249C20.1998 21.573 20.1346 21.6 20.0666 21.6V22.4C20.3467 22.4 20.6154 22.2887 20.8136 22.0906L20.2479 21.5249ZM20.323 21.3436C20.323 21.4116 20.296 21.4768 20.2479 21.5249L20.8136 22.0906C21.0117 21.8925 21.123 21.6238 21.123 21.3436H20.323ZM20.323 19.7209V21.3436H21.123V19.7209H20.323ZM18.6763 15.7531C19.729 16.8057 20.3212 18.2328 20.323 19.7214L21.123 19.7205C21.1209 18.02 20.4445 16.3898 19.242 15.1874L18.6763 15.7531ZM14.7079 14.1069C16.1965 14.1086 17.6237 14.7006 18.6763 15.7531L19.242 15.1874C18.0395 13.9851 16.4092 13.3088 14.7088 13.3069L14.7079 14.1069ZM9.014 14.1069H14.7083V13.3069H9.014V14.1069ZM5.04641 15.7534C6.09894 14.7008 7.52597 14.1087 9.01448 14.1069L9.01352 13.3069C7.31317 13.309 5.68305 13.9853 4.48073 15.1877L5.04641 15.7534ZM3.4 19.7214C3.40178 18.2329 3.99388 16.8059 5.04641 15.7534L4.48073 15.1877C3.2784 16.39 2.60204 18.0201 2.6 19.7205L3.4 19.7214ZM3.4 21.3436V19.7209H2.6V21.3436H3.4ZM3.4751 21.5249C3.42701 21.4768 3.4 21.4116 3.4 21.3436H2.6C2.6 21.6238 2.7113 21.8925 2.90941 22.0906L3.4751 21.5249ZM3.65641 21.6C3.5884 21.6 3.52319 21.573 3.4751 21.5249L2.90941 22.0906C3.10753 22.2887 3.37623 22.4 3.65641 22.4V21.6ZM3.83771 21.5249C3.78963 21.573 3.72441 21.6 3.65641 21.6V22.4C3.93658 22.4 4.20528 22.2887 4.4034 22.0906L3.83771 21.5249ZM3.91281 21.3436C3.91281 21.4116 3.8858 21.4768 3.83771 21.5249L4.4034 22.0906C4.60151 21.8925 4.71281 21.6238 4.71281 21.3436H3.91281ZM3.91281 19.7209V21.3436H4.71281V19.7209H3.91281ZM5.40845 16.1154C4.4522 17.0716 3.91432 18.3682 3.91281 19.7205L4.71281 19.7214C4.71408 18.5809 5.1677 17.4875 5.97414 16.6811L5.40845 16.1154ZM9.01355 14.6198C7.66121 14.6213 6.3647 15.1591 5.40845 16.1154L5.97414 16.6811C6.78057 15.8746 7.87397 15.421 9.01444 15.4198L9.01355 14.6198ZM14.709 14.6198H9.014V15.4198H14.709V14.6198ZM18.3145 16.1154C17.3583 15.1591 16.0618 14.6213 14.7094 14.6198L14.7085 15.4198C15.849 15.421 16.9424 15.8746 17.7488 16.6811L18.3145 16.1154ZM19.8102 19.7205C19.8087 18.3682 19.2708 17.0716 18.3145 16.1154L17.7488 16.6811C18.5553 17.4875 19.0089 18.5809 19.0102 19.7214L19.8102 19.7205ZM19.8102 21.3436V19.7209H19.0102V21.3436H19.8102ZM19.8853 21.5249C19.8372 21.4768 19.8102 21.4116 19.8102 21.3436H19.0102C19.0102 21.6238 19.1215 21.8925 19.3196 22.0906L19.8853 21.5249Z" fill="black"/>
</svg>
