<svg width="16" height="16" viewBox="0 0 16 16" fill="none" xmlns="http://www.w3.org/2000/svg">
<path d="M6.57143 14C6.88702 14 7.14286 13.7442 7.14286 13.4286C7.14286 13.113 6.88702 12.8571 6.57143 12.8571C6.25584 12.8571 6 13.113 6 13.4286C6 13.7442 6.25584 14 6.57143 14Z" stroke="black" stroke-width="1.25" stroke-linecap="round" stroke-linejoin="round"/>
<path d="M12.8571 14C13.1727 14 13.4286 13.7442 13.4286 13.4286C13.4286 13.113 13.1727 12.8571 12.8571 12.8571C12.5415 12.8571 12.2857 13.113 12.2857 13.4286C12.2857 13.7442 12.5415 14 12.8571 14Z" stroke="black" stroke-width="1.25" stroke-linecap="round" stroke-linejoin="round"/>
<path d="M2 2H4.28571L5.81714 9.65143C5.92571 10.1943 6.40571 10.5829 6.96 10.5714H12.5143C13.0686 10.5829 13.5486 10.1943 13.6571 9.65143L14.5714 4.85714H4.85714" stroke="black" stroke-width="1.25" stroke-linecap="round" stroke-linejoin="round"/>
</svg>
