<svg width="16" height="16" viewBox="0 0 16 16" fill="none" xmlns="http://www.w3.org/2000/svg">
<path fill-rule="evenodd" clip-rule="evenodd" d="M6.36506 7.05903C6.9091 7.42255 7.54873 7.61658 8.20304 7.61658C9.08016 7.61561 9.92107 7.26674 10.5413 6.64653C11.1615 6.02632 11.5104 5.18541 11.5113 4.30829C11.5113 3.65397 11.3173 3.01435 10.9538 2.4703C10.5903 1.92626 10.0736 1.50223 9.46907 1.25183C8.86456 1.00143 8.19937 0.935918 7.55763 1.06357C6.91588 1.19122 6.3264 1.5063 5.86373 1.96898C5.40106 2.43165 5.08597 3.02113 4.95832 3.66288C4.83067 4.30462 4.89619 4.96981 5.14658 5.57432C5.39698 6.17883 5.82101 6.69552 6.36506 7.05903ZM6.87561 2.32164C7.26853 2.0591 7.73048 1.91897 8.20304 1.91897C8.83651 1.9197 9.44382 2.17167 9.89174 2.61959C10.3397 3.06752 10.5916 3.67483 10.5924 4.30829C10.5924 4.78085 10.4522 5.24281 10.1897 5.63573C9.92715 6.02865 9.55399 6.33489 9.1174 6.51574C8.68081 6.69658 8.20039 6.74389 7.73691 6.6517C7.27343 6.55951 6.84769 6.33195 6.51354 5.9978C6.17939 5.66364 5.95183 5.23791 5.85963 4.77443C5.76744 4.31094 5.81476 3.83053 5.9956 3.39394C6.17644 2.95735 6.48269 2.58419 6.87561 2.32164ZM13.6217 14.8654C13.7079 14.9516 13.8247 15 13.9466 15C14.0685 15 14.1853 14.9516 14.2715 14.8654C14.3577 14.7792 14.4061 14.6624 14.4061 14.5405V13.4047C14.4047 12.2885 13.9607 11.2184 13.1714 10.4292C12.3821 9.63999 11.312 9.19608 10.1958 9.19486H6.2098C5.0937 9.1962 4.0237 9.64016 3.2345 10.4294C2.4453 11.2186 2.00134 12.2886 2 13.4047V14.5405C2 14.6624 2.04841 14.7792 2.13458 14.8654C2.22075 14.9516 2.33762 15 2.45948 15C2.58135 15 2.69822 14.9516 2.78439 14.8654C2.87056 14.7792 2.91897 14.6624 2.91897 14.5405V13.4047C2.91994 12.5322 3.26697 11.6957 3.88391 11.0788C4.50084 10.4618 5.33731 10.1148 6.2098 10.1138H10.1963C11.0688 10.1148 11.9052 10.4618 12.5222 11.0788C13.1391 11.6957 13.4861 12.5322 13.4871 13.4047V14.5405C13.4871 14.6624 13.5355 14.7792 13.6217 14.8654Z" fill="#020303"/>
<path d="M8.20304 7.61658V7.86658H8.20332L8.20304 7.61658ZM10.5413 6.64653L10.7181 6.82331V6.82331L10.5413 6.64653ZM11.5113 4.30829L11.7613 4.30857V4.30829H11.5113ZM10.9538 2.4703L10.7459 2.6092V2.6092L10.9538 2.4703ZM9.46907 1.25183L9.56474 1.02086V1.02086L9.46907 1.25183ZM5.86373 1.96898L6.04051 2.14575L5.86373 1.96898ZM4.95832 3.66288L4.71313 3.6141L4.95832 3.66288ZM5.14658 5.57432L5.37755 5.47865L5.14658 5.57432ZM8.20304 1.91897L8.20333 1.66897H8.20304V1.91897ZM6.87561 2.32164L6.73672 2.11378L6.87561 2.32164ZM9.89174 2.61959L10.0685 2.44282V2.44282L9.89174 2.61959ZM10.5924 4.30829H10.8424V4.308L10.5924 4.30829ZM9.1174 6.51574L9.21307 6.74671H9.21307L9.1174 6.51574ZM7.73691 6.6517L7.78568 6.40651H7.78568L7.73691 6.6517ZM6.51354 5.9978L6.69032 5.82102L6.69032 5.82102L6.51354 5.9978ZM5.85963 4.77443L6.10483 4.72565L5.85963 4.77443ZM5.9956 3.39394L5.76463 3.29827L5.9956 3.39394ZM14.2715 14.8654L14.0947 14.6886L14.0947 14.6886L14.2715 14.8654ZM14.4061 13.4047H14.6561V13.4044L14.4061 13.4047ZM13.1714 10.4292L13.3482 10.2524L13.1714 10.4292ZM10.1958 9.19486L10.1961 8.94486H10.1958V9.19486ZM6.2098 9.19486V8.94486H6.2095L6.2098 9.19486ZM3.2345 10.4294L3.05772 10.2526L3.2345 10.4294ZM2 13.4047L1.75 13.4044V13.4047H2ZM2.13458 14.8654L2.31136 14.6886L2.13458 14.8654ZM2.78439 14.8654L2.96117 15.0422H2.96117L2.78439 14.8654ZM2.91897 13.4047L2.66897 13.4044V13.4047H2.91897ZM6.2098 10.1138V9.86383H6.20952L6.2098 10.1138ZM10.1963 10.1138L10.1966 9.86383H10.1963V10.1138ZM12.5222 11.0788L12.699 10.902L12.5222 11.0788ZM13.4871 13.4047H13.7371V13.4044L13.4871 13.4047ZM8.20304 7.36658C7.59817 7.36658 7.00688 7.18722 6.50395 6.85117L6.22616 7.2669C6.81132 7.65789 7.49928 7.86658 8.20304 7.86658V7.36658ZM10.3645 6.46975C9.79111 7.04315 9.01367 7.36568 8.20277 7.36658L8.20332 7.86658C9.14664 7.86554 10.051 7.49034 10.7181 6.82331L10.3645 6.46975ZM11.2613 4.30801C11.2604 5.11892 10.9379 5.89636 10.3645 6.46975L10.7181 6.82331C11.3851 6.15628 11.7603 5.25189 11.7613 4.30857L11.2613 4.30801ZM10.7459 2.6092C11.082 3.11213 11.2613 3.70342 11.2613 4.30829H11.7613C11.7613 3.60453 11.5526 2.91657 11.1617 2.33141L10.7459 2.6092ZM9.3734 1.4828C9.93223 1.71427 10.4099 2.10626 10.7459 2.6092L11.1617 2.33141C10.7707 1.74625 10.2149 1.29018 9.56474 1.02086L9.3734 1.4828ZM7.6064 1.30877C8.19965 1.19076 8.81457 1.25133 9.3734 1.4828L9.56474 1.02086C8.91455 0.751542 8.1991 0.681076 7.50886 0.818373L7.6064 1.30877ZM6.04051 2.14575C6.46822 1.71804 7.01315 1.42677 7.6064 1.30877L7.50886 0.818373C6.81861 0.95567 6.18459 1.29456 5.68695 1.7922L6.04051 2.14575ZM5.20352 3.71165C5.32152 3.1184 5.6128 2.57346 6.04051 2.14575L5.68695 1.7922C5.18932 2.28984 4.85042 2.92386 4.71313 3.6141L5.20352 3.71165ZM5.37755 5.47865C5.14608 4.91982 5.08551 4.3049 5.20352 3.71165L4.71313 3.6141C4.57583 4.30434 4.64629 5.0198 4.91561 5.66999L5.37755 5.47865ZM6.50395 6.85117C6.00102 6.51512 5.60903 6.03748 5.37755 5.47865L4.91561 5.66999C5.18493 6.32018 5.64101 6.87591 6.22616 7.2669L6.50395 6.85117ZM8.20304 1.66897C7.68104 1.66897 7.17075 1.82376 6.73672 2.11378L7.0145 2.52951C7.36631 2.29444 7.77993 2.16897 8.20304 2.16897V1.66897ZM10.0685 2.44282C9.57378 1.94808 8.903 1.66978 8.20333 1.66897L8.20276 2.16897C8.77002 2.16962 9.31385 2.39526 9.71497 2.79637L10.0685 2.44282ZM10.8424 4.308C10.8416 3.60834 10.5633 2.93756 10.0685 2.44282L9.71497 2.79637C10.1161 3.19748 10.3417 3.74132 10.3424 4.30858L10.8424 4.308ZM10.3976 5.77462C10.6876 5.34059 10.8424 4.8303 10.8424 4.30829H10.3424C10.3424 4.73141 10.2169 5.14502 9.98182 5.49683L10.3976 5.77462ZM9.21307 6.74671C9.69534 6.54694 10.1075 6.20865 10.3976 5.77462L9.98182 5.49683C9.74675 5.84864 9.41264 6.12285 9.02173 6.28477L9.21307 6.74671ZM7.68814 6.8969C8.20012 6.99874 8.7308 6.94647 9.21307 6.74671L9.02173 6.28477C8.63082 6.44669 8.20067 6.48905 7.78568 6.40651L7.68814 6.8969ZM6.33676 6.17457C6.70588 6.54369 7.17616 6.79506 7.68814 6.8969L7.78568 6.40651C7.3707 6.32396 6.98951 6.12021 6.69032 5.82102L6.33676 6.17457ZM5.61444 4.8232C5.71628 5.33518 5.96765 5.80546 6.33676 6.17457L6.69032 5.82102C6.39113 5.52183 6.18738 5.14064 6.10483 4.72565L5.61444 4.8232ZM5.76463 3.29827C5.56487 3.78054 5.5126 4.31122 5.61444 4.8232L6.10483 4.72565C6.02228 4.31067 6.06465 3.88052 6.22657 3.48961L5.76463 3.29827ZM6.73672 2.11378C6.30268 2.40379 5.96439 2.81599 5.76463 3.29827L6.22657 3.48961C6.38849 3.0987 6.66269 2.76458 7.0145 2.52951L6.73672 2.11378ZM13.9466 14.75C13.891 14.75 13.8378 14.7279 13.7985 14.6886L13.4449 15.0422C13.578 15.1752 13.7584 15.25 13.9466 15.25V14.75ZM14.0947 14.6886C14.0554 14.7279 14.0022 14.75 13.9466 14.75V15.25C14.1348 15.25 14.3152 15.1752 14.4483 15.0422L14.0947 14.6886ZM14.1561 14.5405C14.1561 14.5961 14.134 14.6494 14.0947 14.6886L14.4483 15.0422C14.5813 14.9091 14.6561 14.7287 14.6561 14.5405H14.1561ZM14.1561 13.4047V14.5405H14.6561V13.4047H14.1561ZM12.9947 10.606C13.7371 11.3484 14.1548 12.355 14.1561 13.405L14.6561 13.4044C14.6547 12.222 14.1843 11.0884 13.3482 10.2524L12.9947 10.606ZM10.1956 9.44486C11.2455 9.44601 12.2522 9.86358 12.9947 10.606L13.3482 10.2524C12.5121 9.41639 11.3785 8.94615 10.1961 8.94486L10.1956 9.44486ZM6.2098 9.44486H10.1958V8.94486H6.2098V9.44486ZM3.41128 10.6061C4.15367 9.86375 5.1602 9.44612 6.2101 9.44486L6.2095 8.94486C5.0272 8.94628 3.89373 9.41657 3.05772 10.2526L3.41128 10.6061ZM2.25 13.405C2.25126 12.3551 2.66889 11.3485 3.41128 10.6061L3.05772 10.2526C2.22171 11.0886 1.75142 12.2221 1.75 13.4044L2.25 13.405ZM2.25 14.5405V13.4047H1.75V14.5405H2.25ZM2.31136 14.6886C2.27207 14.6494 2.25 14.5961 2.25 14.5405H1.75C1.75 14.7287 1.82475 14.9091 1.9578 15.0422L2.31136 14.6886ZM2.45948 14.75C2.40393 14.75 2.35064 14.7279 2.31136 14.6886L1.9578 15.0422C2.09086 15.1752 2.27132 15.25 2.45948 15.25V14.75ZM2.60761 14.6886C2.56833 14.7279 2.51504 14.75 2.45948 14.75V15.25C2.64765 15.25 2.82811 15.1752 2.96117 15.0422L2.60761 14.6886ZM2.66897 14.5405C2.66897 14.5961 2.6469 14.6494 2.60761 14.6886L2.96117 15.0422C3.09422 14.9091 3.16897 14.7287 3.16897 14.5405H2.66897ZM2.66897 13.4047V14.5405H3.16897V13.4047H2.66897ZM3.70713 10.902C3.04337 11.5657 2.67002 12.4657 2.66897 13.4044L3.16897 13.4049C3.16987 12.5987 3.49056 11.8257 4.06068 11.2555L3.70713 10.902ZM6.20952 9.86383C5.27083 9.86488 4.37088 10.2382 3.70713 10.902L4.06068 11.2555C4.63081 10.6854 5.4038 10.3647 6.21008 10.3638L6.20952 9.86383ZM10.1963 9.86383H6.2098V10.3638H10.1963V9.86383ZM12.699 10.902C12.0352 10.2382 11.1353 9.86488 10.1966 9.86383L10.196 10.3638C11.0023 10.3647 11.7753 10.6854 12.3454 11.2555L12.699 10.902ZM13.7371 13.4044C13.7361 12.4657 13.3627 11.5657 12.699 10.902L12.3454 11.2555C12.9155 11.8257 13.2362 12.5987 13.2371 13.4049L13.7371 13.4044ZM13.7371 14.5405V13.4047H13.2371V14.5405H13.7371ZM13.7985 14.6886C13.7592 14.6494 13.7371 14.5961 13.7371 14.5405H13.2371C13.2371 14.7287 13.3119 14.9091 13.4449 15.0422L13.7985 14.6886Z" fill="black"/>
</svg>
