<svg width="16" height="16" viewBox="0 0 16 16" fill="none" xmlns="http://www.w3.org/2000/svg">
<path d="M2.02514 3.02514C1.70013 3.35014 1.44232 3.73598 1.26642 4.16062C1.09053 4.58526 1 5.04039 1 5.50002C1 5.95965 1.09053 6.41477 1.26642 6.83941C1.44232 7.26406 1.70013 7.64989 2.02514 7.9749L8.00001 13.9498L13.9749 7.9749C14.6313 7.31852 15 6.42828 15 5.50002C15 4.57176 14.6313 3.68152 13.9749 3.02514C13.3185 2.36876 12.4283 2.00001 11.5 2.00001C10.5717 2.00001 9.68149 2.36876 9.02511 3.02514L8.00001 4.05025L6.9749 3.02514C6.64989 2.70013 6.26406 2.44232 5.83941 2.26642C5.41477 2.09053 4.95965 2 4.50002 2C4.04039 2 3.58526 2.09053 3.16062 2.26642C2.73598 2.44232 2.35014 2.70013 2.02514 3.02514V3.02514Z" stroke="black" stroke-width="1.25" stroke-linecap="round" stroke-linejoin="round"/>
</svg>
