<svg width="356" height="139" viewBox="0 0 356 139" fill="none" xmlns="http://www.w3.org/2000/svg">
<path d="M54.7597 55.6618L47.5377 83.3657H39.3686L34.9486 65.1332L30.3708 83.3657H22.2017L15.177 55.6618H22.399L26.3849 75.828L31.3179 55.6618H38.7372L43.4729 75.828L47.4983 55.6618H54.7597ZM56.8023 72.3157C56.8023 70.0531 57.2232 68.0667 58.0651 66.3566C58.9333 64.6465 60.1041 63.331 61.5775 62.4102C63.0508 61.4894 64.6951 61.0289 66.5105 61.0289C68.0627 61.0289 69.4177 61.3447 70.5753 61.9761C71.7592 62.6075 72.6669 63.4363 73.2983 64.4623V61.3447H80.0467V83.3657H73.2983V80.248C72.6406 81.2741 71.7198 82.1029 70.5358 82.7343C69.3782 83.3657 68.0233 83.6814 66.471 83.6814C64.682 83.6814 63.0508 83.221 61.5775 82.3002C60.1041 81.353 58.9333 80.0244 58.0651 78.3143C57.2232 76.5779 56.8023 74.5783 56.8023 72.3157ZM73.2983 72.3552C73.2983 70.6714 72.8248 69.3428 71.8776 68.3693C70.9568 67.3958 69.8255 66.9091 68.4837 66.9091C67.1419 66.9091 65.9975 67.3958 65.0503 68.3693C64.1295 69.3164 63.6691 70.6319 63.6691 72.3157C63.6691 73.9995 64.1295 75.3413 65.0503 76.3411C65.9975 77.3145 67.1419 77.8013 68.4837 77.8013C69.8255 77.8013 70.9568 77.3145 71.8776 76.3411C72.8248 75.3676 73.2983 74.039 73.2983 72.3552ZM91.6773 65.0148C92.4666 63.8046 93.4532 62.8575 94.6371 62.1734C95.821 61.4631 97.1365 61.1079 98.5835 61.1079V68.2509H96.7287C95.0449 68.2509 93.782 68.6192 92.9401 69.3559C92.0982 70.0663 91.6773 71.3291 91.6773 73.1445V83.3657H84.9289V61.3447H91.6773V65.0148ZM108.558 65.0148C109.347 63.8046 110.333 62.8575 111.517 62.1734C112.701 61.4631 114.017 61.1079 115.464 61.1079V68.2509H113.609C111.925 68.2509 110.662 68.6192 109.82 69.3559C108.978 70.0663 108.558 71.3291 108.558 73.1445V83.3657H101.809V61.3447H108.558V65.0148ZM117.348 72.3157C117.348 70.0531 117.769 68.0667 118.61 66.3566C119.479 64.6465 120.649 63.331 122.123 62.4102C123.596 61.4894 125.24 61.0289 127.056 61.0289C128.608 61.0289 129.963 61.3447 131.121 61.9761C132.305 62.6075 133.212 63.4363 133.844 64.4623V61.3447H140.592V83.3657H133.844V80.248C133.186 81.2741 132.265 82.1029 131.081 82.7343C129.923 83.3657 128.569 83.6814 127.016 83.6814C125.227 83.6814 123.596 83.221 122.123 82.3002C120.649 81.353 119.479 80.0244 118.61 78.3143C117.769 76.5779 117.348 74.5783 117.348 72.3157ZM133.844 72.3552C133.844 70.6714 133.37 69.3428 132.423 68.3693C131.502 67.3958 130.371 66.9091 129.029 66.9091C127.687 66.9091 126.543 67.3958 125.596 68.3693C124.675 69.3164 124.214 70.6319 124.214 72.3157C124.214 73.9995 124.675 75.3413 125.596 76.3411C126.543 77.3145 127.687 77.8013 129.029 77.8013C130.371 77.8013 131.502 77.3145 132.423 76.3411C133.37 75.3676 133.844 74.039 133.844 72.3552ZM158.892 61.1079C161.47 61.1079 163.522 61.9498 165.048 63.6336C166.601 65.2911 167.377 67.58 167.377 70.5004V83.3657H160.668V71.4081C160.668 69.9347 160.286 68.7903 159.523 67.9747C158.76 67.1591 157.734 66.7513 156.445 66.7513C155.156 66.7513 154.13 67.1591 153.367 67.9747C152.604 68.7903 152.223 69.9347 152.223 71.4081V83.3657H145.474V61.3447H152.223V64.265C152.907 63.2916 153.827 62.5286 154.985 61.9761C156.143 61.3973 157.445 61.1079 158.892 61.1079ZM184.34 77.6434V83.3657H180.906C178.46 83.3657 176.552 82.7738 175.184 81.5898C173.816 80.3796 173.132 78.4195 173.132 75.7097V66.9486H170.448V61.3447H173.132V55.9775H179.88V61.3447H184.3V66.9486H179.88V75.7886C179.88 76.4463 180.038 76.9199 180.354 77.2093C180.67 77.4987 181.196 77.6434 181.932 77.6434H184.34ZM210.593 61.3447L196.781 93.8238H189.519L194.571 82.6159L185.612 61.3447H193.15L198.241 75.1177L203.292 61.3447H210.593ZM242.51 64.5807C242.51 66.1856 242.142 67.6589 241.405 69.0007C240.668 70.3162 239.537 71.3817 238.011 72.1973C236.485 73.0129 234.591 73.4207 232.328 73.4207H228.145V83.3657H221.397V55.6618H232.328C234.538 55.6618 236.406 56.0433 237.932 56.8063C239.458 57.5692 240.603 58.6216 241.366 59.9634C242.129 61.3052 242.51 62.8443 242.51 64.5807ZM231.815 68.0536C233.104 68.0536 234.065 67.751 234.696 67.1459C235.328 66.5408 235.643 65.6857 235.643 64.5807C235.643 63.4757 235.328 62.6207 234.696 62.0156C234.065 61.4104 233.104 61.1079 231.815 61.1079H228.145V68.0536H231.815ZM256.047 83.6814C253.89 83.6814 251.943 83.221 250.206 82.3002C248.496 81.3794 247.141 80.0639 246.142 78.3538C245.168 76.6436 244.681 74.6441 244.681 72.3552C244.681 70.0926 245.181 68.1062 246.181 66.3961C247.181 64.6597 248.549 63.331 250.285 62.4102C252.022 61.4894 253.969 61.0289 256.126 61.0289C258.283 61.0289 260.23 61.4894 261.967 62.4102C263.703 63.331 265.071 64.6597 266.071 66.3961C267.071 68.1062 267.571 70.0926 267.571 72.3552C267.571 74.6178 267.058 76.6173 266.032 78.3538C265.032 80.0639 263.651 81.3794 261.888 82.3002C260.151 83.221 258.205 83.6814 256.047 83.6814ZM256.047 77.8407C257.336 77.8407 258.428 77.3672 259.323 76.42C260.244 75.4729 260.704 74.1179 260.704 72.3552C260.704 70.5925 260.257 69.2375 259.362 68.2904C258.494 67.3432 257.415 66.8697 256.126 66.8697C254.811 66.8697 253.719 67.3432 252.851 68.2904C251.982 69.2112 251.548 70.5661 251.548 72.3552C251.548 74.1179 251.969 75.4729 252.811 76.42C253.679 77.3672 254.758 77.8407 256.047 77.8407ZM277.899 54.1622V83.3657H271.151V54.1622H277.899ZM286.184 59.0557C285 59.0557 284.026 58.7137 283.263 58.0297C282.527 57.3193 282.158 56.4511 282.158 55.425C282.158 54.3726 282.527 53.5044 283.263 52.8204C284.026 52.11 285 51.7548 286.184 51.7548C287.341 51.7548 288.288 52.11 289.025 52.8204C289.788 53.5044 290.17 54.3726 290.17 55.425C290.17 56.4511 289.788 57.3193 289.025 58.0297C288.288 58.7137 287.341 59.0557 286.184 59.0557ZM289.538 61.3447V83.3657H282.79V61.3447H289.538ZM293.087 72.3552C293.087 70.0663 293.547 68.0667 294.468 66.3566C295.415 64.6465 296.718 63.331 298.375 62.4102C300.059 61.4894 301.979 61.0289 304.137 61.0289C306.899 61.0289 309.201 61.7525 311.043 63.1995C312.911 64.6465 314.134 66.6855 314.713 69.3164H307.531C306.926 67.6326 305.755 66.7907 304.018 66.7907C302.782 66.7907 301.795 67.2775 301.059 68.2509C300.322 69.1981 299.954 70.5661 299.954 72.3552C299.954 74.1442 300.322 75.5255 301.059 76.4989C301.795 77.4461 302.782 77.9197 304.018 77.9197C305.755 77.9197 306.926 77.0777 307.531 75.3939H314.713C314.134 77.9723 312.911 79.9981 311.043 81.4714C309.175 82.9448 306.873 83.6814 304.137 83.6814C301.979 83.6814 300.059 83.221 298.375 82.3002C296.718 81.3794 295.415 80.0639 294.468 78.3538C293.547 76.6436 293.087 74.6441 293.087 72.3552ZM340.818 61.3447L327.005 93.8238H319.744L324.795 82.6159L315.837 61.3447H323.374L328.465 75.1177L333.517 61.3447H340.818Z" fill="#B3803F"/>
<path d="M184.108 37.8319C184.108 37.8319 183.987 37.6958 183.73 37.4538C183.473 37.2117 183.125 36.8184 182.686 36.289C182.248 35.7596 181.749 35.0637 181.234 34.2015C180.72 33.3242 180.236 32.2653 179.903 30.9795C179.737 30.3442 179.631 29.6483 179.585 28.9071C179.54 28.1659 179.585 27.3945 179.722 26.5927C179.994 25.0044 180.675 23.3254 181.809 21.8278C182.928 20.3303 184.471 18.9991 186.287 17.9553C188.102 16.9267 190.189 16.1855 192.428 15.762C194.667 15.3384 197.057 15.2628 199.492 15.5351C201.913 15.8073 204.393 16.3822 206.798 17.3351C209.219 18.273 211.548 19.5437 213.757 21.0866C214.861 21.8581 215.935 22.69 216.979 23.5825C217.493 24.0363 218.007 24.4901 218.507 24.959L218.885 25.307L219.081 25.4885L219.263 25.67C219.505 25.912 219.747 26.1389 219.989 26.4112C220.957 27.455 221.834 28.5743 222.561 29.8299C222.924 30.4652 223.256 31.1156 223.498 31.8115C223.74 32.5073 223.952 33.2183 224.043 33.9595C224.134 34.7007 224.119 35.4722 223.967 36.2285C223.816 36.9697 223.514 37.7109 223.075 38.3462C222.636 38.9816 222.046 39.5261 221.381 39.9194C220.715 40.3279 219.959 40.5699 219.202 40.6909C218.824 40.7514 218.431 40.7817 218.053 40.7817H217.765H217.69H217.599L217.463 40.7665C217.281 40.7514 217.115 40.7514 216.918 40.706C216.132 40.6153 215.406 40.4337 214.664 40.1766C213.212 39.6623 211.851 38.8454 210.686 37.7866C210.096 37.2571 209.567 36.6823 209.083 36.0621C208.599 35.4419 208.175 34.7612 207.812 34.0654C207.086 32.6586 206.617 31.1156 206.42 29.5122C206.224 27.9239 206.299 26.2751 206.708 24.6868C207.116 23.0985 207.903 21.5858 208.977 20.3303C210.051 19.0747 211.412 18.0915 212.849 17.4108C214.286 16.6998 215.814 16.3065 217.327 16.0494C218.839 15.8073 220.352 15.7468 221.834 15.7922C223.317 15.8376 224.769 15.9889 226.206 16.2158C226.569 16.2763 226.932 16.3368 227.295 16.3973C227.643 16.4729 227.976 16.5334 228.339 16.6091C229.065 16.7603 229.746 16.9419 230.426 17.1385C231.788 17.5167 233.119 17.9402 234.435 18.3789C237.052 19.2562 239.578 20.2092 242.044 21.132C244.51 22.0547 246.93 22.9623 249.274 23.8094C253.979 25.5187 258.472 27.0012 262.677 28.1054C266.882 29.2248 270.83 29.9206 274.355 30.1324C277.879 30.3291 280.965 30.0265 283.416 29.3307C284.641 28.9828 285.685 28.5592 286.577 28.1205C287.454 27.6667 288.165 27.2281 288.725 26.8196C289.27 26.4263 289.678 26.0936 289.95 25.8515C290.208 25.6095 290.359 25.4885 290.359 25.4885C290.359 25.4885 290.223 25.6095 289.966 25.8667C289.708 26.1238 289.315 26.4717 288.786 26.8953C288.241 27.3188 287.545 27.8029 286.683 28.2869C285.806 28.771 284.762 29.2399 283.537 29.6483C282.311 30.0416 280.92 30.3744 279.377 30.5862C277.834 30.798 276.155 30.8736 274.355 30.8434C270.77 30.7526 266.746 30.1929 262.45 29.2097C258.154 28.2416 253.586 26.865 248.806 25.2918C246.415 24.5052 243.98 23.6733 241.484 22.8262C238.988 21.9791 236.447 21.1168 233.845 20.3303C232.544 19.937 231.243 19.5588 229.912 19.2411C229.262 19.0899 228.581 18.9235 227.931 18.8024C227.613 18.7419 227.265 18.6814 226.917 18.6209C226.584 18.5755 226.252 18.5302 225.919 18.4848C223.211 18.152 220.428 18.0764 217.781 18.5453C216.464 18.7873 215.179 19.1655 214.014 19.7403C212.849 20.3 211.821 21.0866 211.004 22.0396C209.355 23.9456 208.704 26.6079 209.007 29.2248C209.158 30.5257 209.506 31.8266 210.02 33.0519C210.278 33.6721 210.565 34.262 210.913 34.852C211.246 35.4268 211.639 35.9865 212.063 36.5008C212.91 37.5445 213.969 38.437 215.179 39.0421C215.784 39.3446 216.449 39.5715 217.085 39.6925C217.236 39.7379 217.433 39.753 217.599 39.7833L217.735 39.7984C217.75 39.7984 217.796 39.8135 217.781 39.7984H217.841L218.098 39.8135C218.431 39.8438 218.764 39.8135 219.097 39.7682C220.413 39.6018 221.638 38.8908 222.364 37.8168C223.105 36.7428 223.302 35.3663 223.105 34.0805C223.014 33.43 222.818 32.7947 222.561 32.1745C222.319 31.5543 221.986 30.9795 221.623 30.4047C220.912 29.2853 220.004 28.2567 219.066 27.3491C218.839 27.1222 218.567 26.8953 218.325 26.6532L218.144 26.4869L217.962 26.3356L217.584 26.0179C217.085 25.5792 216.555 25.1708 216.041 24.7624C214.982 23.9607 213.923 23.2043 212.849 22.5085C211.76 21.8278 210.656 21.1925 209.536 20.6177C209.249 20.4815 208.977 20.3454 208.689 20.2092C208.417 20.0731 208.13 19.9521 207.842 19.8311C207.57 19.6949 207.283 19.589 206.995 19.468C206.708 19.347 206.435 19.226 206.148 19.1352C205.861 19.0293 205.588 18.9235 205.301 18.8176C205.014 18.7268 204.726 18.6209 204.454 18.5302C203.879 18.3486 203.319 18.1822 202.744 18.031C201.61 17.7284 200.46 17.5167 199.341 17.3654C197.087 17.0629 194.863 17.1234 192.791 17.441C190.719 17.7587 188.782 18.394 187.088 19.2714C185.394 20.1487 183.957 21.2832 182.898 22.5841C181.824 23.885 181.128 25.3372 180.796 26.7591C180.629 27.4701 180.553 28.181 180.553 28.8466C180.553 29.5273 180.599 30.1627 180.72 30.7829C180.947 31.993 181.34 33.0519 181.749 33.9292C182.172 34.8066 182.611 35.5175 182.989 36.0772C183.367 36.6369 183.685 37.0605 183.912 37.3328C184.139 37.605 184.244 37.7563 184.244 37.7563C184.26 37.7714 184.26 37.8017 184.244 37.8168C184.154 37.8471 184.123 37.8471 184.108 37.8319Z" fill="#B3803F"/>
<path d="M181.869 25.9272C181.869 25.9272 181.975 25.8213 182.187 25.6096C182.293 25.5037 182.429 25.3827 182.58 25.2314C182.762 25.0953 182.958 24.9289 183.185 24.7473C183.412 24.5658 183.699 24.3994 184.002 24.2028C184.153 24.0969 184.32 24.0212 184.501 23.9305C184.683 23.8397 184.864 23.7338 185.061 23.6582C185.257 23.5826 185.469 23.4918 185.681 23.4011C185.893 23.3254 186.135 23.2649 186.377 23.1893C186.619 23.1136 186.861 23.0683 187.133 23.0078C187.39 22.9472 187.663 22.917 187.935 22.8867C189.054 22.7809 190.31 22.796 191.626 23.1439C191.792 23.1893 191.959 23.2347 192.125 23.28C192.291 23.3254 192.458 23.3859 192.624 23.4464C192.957 23.5523 193.29 23.7036 193.623 23.8549C194.273 24.1725 194.924 24.5809 195.529 25.0801C196.134 25.5793 196.693 26.1693 197.147 26.8651C197.601 27.5609 197.979 28.3475 198.1 29.2249C198.251 30.0871 197.994 31.0552 197.389 31.7208C197.087 32.0536 196.663 32.3259 196.194 32.4015C195.725 32.4771 195.226 32.3864 194.772 32.22C193.865 31.8569 193.063 31.2065 192.443 30.4199C191.807 29.6182 191.399 28.65 191.157 27.6366C190.915 26.6231 190.824 25.5339 190.96 24.4599C191.096 23.3859 191.459 22.3119 192.019 21.3589C192.579 20.4059 193.32 19.5588 194.167 18.8328C195.014 18.1067 195.952 17.5016 196.951 17.0024C197.45 16.7453 197.964 16.5184 198.478 16.3066L198.872 16.1553L199.068 16.0797L199.265 16.0041C199.522 15.9133 199.794 15.8225 200.051 15.7166C200.581 15.52 201.125 15.3687 201.655 15.1872C202.199 15.0359 202.744 14.8544 203.304 14.7183C203.576 14.6426 203.863 14.5821 204.136 14.5065C204.423 14.446 204.695 14.3855 204.983 14.325C205.27 14.2645 205.543 14.204 205.83 14.1586C206.117 14.1132 206.405 14.0376 206.692 14.0073C207.842 13.8258 209.022 13.7502 210.202 13.735C211.381 13.7199 212.576 13.7955 213.771 13.9771C214.967 14.1435 216.146 14.4006 217.311 14.7485C218.476 15.0964 219.626 15.5049 220.745 15.9738C221.879 16.4276 222.984 16.957 224.073 17.5016C226.266 18.5907 228.399 19.8009 230.487 21.0564C231.53 21.6917 232.574 22.327 233.603 22.9624L235.131 23.9456C235.63 24.2784 236.144 24.5961 236.643 24.9289C237.157 25.2465 237.657 25.5944 238.171 25.897C238.67 26.2146 239.169 26.5172 239.684 26.8348C240.697 27.455 241.711 28.045 242.739 28.6349C246.824 30.9644 251.029 32.9309 255.249 34.3831C257.352 35.1092 259.454 35.6991 261.542 36.0924C263.629 36.4706 265.687 36.6672 267.653 36.5614C268.137 36.516 268.636 36.5008 269.105 36.4252C269.347 36.395 269.589 36.3647 269.816 36.3193C270.043 36.2739 270.285 36.2286 270.512 36.1681C271.42 35.9412 272.312 35.6689 273.099 35.2453L273.401 35.0941L273.689 34.9277C273.87 34.8066 274.067 34.7008 274.248 34.5797C274.596 34.3075 274.959 34.0654 275.262 33.7629C275.897 33.1881 276.427 32.5225 276.926 31.7964C277.032 31.63 277.138 31.4485 277.259 31.2821C277.364 31.1006 277.455 30.9191 277.546 30.7375C277.652 30.556 277.728 30.3745 277.803 30.1779C277.879 29.9963 277.97 29.8148 278.03 29.6182C278.333 28.8618 278.484 28.0904 278.59 27.334C278.696 26.5777 278.68 25.8213 278.605 25.0953C278.544 24.3692 278.363 23.6733 278.136 23.0229C277.682 21.722 276.941 20.6177 276.109 19.7555C275.247 18.9235 274.279 18.3336 273.341 17.9857C272.403 17.6377 271.48 17.5167 270.694 17.5167C270.588 17.5167 270.497 17.5167 270.406 17.5167C270.315 17.5167 270.21 17.5319 270.119 17.5319C269.937 17.547 269.756 17.5621 269.589 17.5772C269.257 17.6377 268.954 17.668 268.682 17.7285C268.409 17.8041 268.167 17.8646 267.971 17.91C267.774 17.9705 267.593 18.031 267.456 18.0764C267.184 18.1672 267.048 18.2126 267.048 18.2126H267.033C266.942 18.2428 266.851 18.1974 266.836 18.1067C266.806 18.031 266.851 17.9403 266.927 17.91C266.927 17.91 267.063 17.8495 267.335 17.7285C267.472 17.668 267.638 17.5924 267.85 17.5167C268.062 17.4411 268.304 17.3655 268.576 17.2747C268.848 17.1991 269.166 17.1234 269.529 17.0327C269.71 17.0024 269.892 16.9722 270.088 16.9419C270.179 16.9268 270.285 16.9117 270.391 16.8965C270.497 16.8965 270.603 16.8814 270.709 16.8814C271.556 16.8209 272.569 16.8814 273.643 17.1991C274.717 17.5167 275.852 18.0916 276.88 18.984C277.894 19.8916 278.802 21.0867 279.391 22.554C279.997 24.0061 280.299 25.7154 280.163 27.4853C280.087 28.3626 279.936 29.2702 279.633 30.1627C279.573 30.3896 279.482 30.6014 279.391 30.8283C279.301 31.0552 279.225 31.267 279.119 31.4788C279.013 31.6905 278.907 31.9174 278.802 32.1292C278.68 32.341 278.559 32.5679 278.423 32.7797C278.302 33.0066 278.166 33.1881 278.045 33.3847L277.849 33.6721L277.758 33.8083C277.758 33.8083 277.697 33.8839 277.712 33.8688L277.682 33.899L277.622 33.9747C277.455 34.1713 277.304 34.368 277.138 34.5646L277.017 34.7159L276.88 34.852L276.608 35.1243C276.26 35.5025 275.837 35.8201 275.428 36.1529C275.216 36.3042 274.99 36.4403 274.778 36.5916L274.445 36.8034L274.097 36.9849C273.174 37.5143 272.146 37.8774 271.102 38.1799C270.845 38.2404 270.573 38.3161 270.315 38.3766C270.043 38.4371 269.786 38.4673 269.514 38.5278C268.969 38.6337 268.44 38.6791 267.88 38.7396C265.687 38.906 263.448 38.7396 261.224 38.3766C259.001 38.0135 256.777 37.4236 254.568 36.7126C250.151 35.2605 245.81 33.2486 241.59 30.8888C240.531 30.2989 239.487 29.6787 238.458 29.0282C237.43 28.3778 236.386 27.6971 235.403 27.0164C234.389 26.3205 233.421 25.6247 232.438 24.9137C231.455 24.2179 230.471 23.5069 229.488 22.8111C227.522 21.4194 225.54 20.0429 223.513 18.7874C222.5 18.1672 221.456 17.5621 220.397 17.0327C219.338 16.5032 218.264 16.0041 217.16 15.6108C214.951 14.809 212.637 14.3099 210.323 14.2947C209.173 14.2796 208.008 14.3401 206.889 14.5065C205.754 14.6729 204.635 14.8998 203.561 15.2175C203.289 15.2931 203.016 15.3687 202.744 15.4595C202.472 15.5503 202.215 15.6259 201.942 15.7166C201.413 15.9133 200.899 16.0797 200.384 16.3066C200.127 16.4125 199.87 16.5184 199.613 16.6243L199.416 16.6999L199.235 16.7755L198.856 16.9419C198.357 17.1688 197.873 17.4108 197.419 17.6831C196.497 18.2126 195.634 18.8328 194.878 19.5437C194.137 20.2547 193.502 21.0564 193.063 21.9186C192.14 23.6431 191.974 25.6398 192.412 27.4096C192.639 28.3021 193.018 29.119 193.426 29.8904C193.638 30.2837 193.88 30.6468 194.152 30.9947C194.424 31.3275 194.727 31.6451 195.09 31.872C195.453 32.099 195.861 32.2502 196.285 32.22C196.693 32.1897 197.087 31.9628 197.344 31.6451C197.888 31.0098 198.04 30.1173 197.798 29.3761C197.586 28.6198 197.147 27.9693 196.633 27.4399C196.119 26.9105 195.544 26.4567 194.954 26.0785C192.609 24.5658 190.143 23.991 188.147 24.0969C186.135 24.1725 184.607 24.8078 183.624 25.2919C183.382 25.4129 183.155 25.5339 182.973 25.6247C182.792 25.7457 182.625 25.8365 182.504 25.9121C182.247 26.0634 182.126 26.139 182.126 26.139C182.066 26.1693 181.99 26.1541 181.96 26.0936C181.824 26.0331 181.839 25.9726 181.869 25.9272Z" fill="#B3803F"/>
<path d="M178.996 37.8319C178.996 37.8319 179.117 37.6958 179.374 37.4538C179.631 37.2117 179.979 36.8184 180.418 36.289C180.856 35.7596 181.355 35.0637 181.87 34.2015C182.384 33.3242 182.868 32.2653 183.201 30.9795C183.367 30.3442 183.473 29.6483 183.519 28.9071C183.564 28.1659 183.519 27.3945 183.382 26.5927C183.11 25.0044 182.429 23.3254 181.295 21.8278C180.176 20.3303 178.633 18.9991 176.817 17.9553C175.002 16.9267 172.915 16.1855 170.676 15.762C168.437 15.3384 166.047 15.2628 163.612 15.5351C161.191 15.8073 158.711 16.3822 156.305 17.3351C153.885 18.273 151.556 19.5437 149.347 21.0866C148.243 21.8581 147.169 22.69 146.125 23.5825C145.611 24.0363 145.097 24.4901 144.597 24.959L144.219 25.307L144.023 25.4885L143.841 25.67C143.599 25.912 143.357 26.1389 143.115 26.4112C142.147 27.455 141.269 28.5743 140.543 29.8299C140.18 30.4652 139.848 31.1156 139.605 31.8115C139.363 32.5073 139.152 33.2183 139.061 33.9595C138.97 34.7007 138.985 35.4722 139.137 36.2285C139.303 36.9697 139.59 37.7109 140.029 38.3462C140.468 38.9816 141.058 39.5261 141.723 39.9194C142.389 40.3279 143.145 40.5699 143.901 40.6909C144.28 40.7514 144.673 40.7817 145.051 40.7817H145.339H145.414H145.505L145.641 40.7665C145.823 40.7514 145.989 40.7514 146.186 40.706C146.972 40.6153 147.698 40.4337 148.44 40.1766C149.892 39.6623 151.253 38.8454 152.418 37.7866C153.008 37.2571 153.537 36.6823 154.021 36.0621C154.505 35.4419 154.929 34.7612 155.292 34.0654C156.018 32.6586 156.487 31.1156 156.684 29.5122C156.88 27.9239 156.805 26.2751 156.396 24.6868C155.988 23.0985 155.201 21.5858 154.127 20.3303C153.053 19.0747 151.692 18.0915 150.255 17.4108C148.818 16.6998 147.29 16.3065 145.777 16.0494C144.265 15.8073 142.752 15.7468 141.269 15.7922C139.787 15.8376 138.335 15.9889 136.898 16.2158C136.535 16.2763 136.172 16.3368 135.809 16.3973C135.461 16.4729 135.128 16.5334 134.765 16.6091C134.039 16.7603 133.358 16.9419 132.677 17.1385C131.316 17.5167 129.985 17.9402 128.669 18.3789C126.052 19.2562 123.526 20.2092 121.06 21.132C118.594 22.0547 116.174 22.9623 113.829 23.8094C109.125 25.5187 104.632 27.0012 100.427 28.1054C96.2219 29.2248 92.2738 29.9206 88.7493 30.1324C85.2247 30.3291 82.1388 30.0265 79.6883 29.3307C78.463 28.9828 77.4193 28.5592 76.5268 28.1205C75.6495 27.6667 74.9385 27.2281 74.3788 26.8196C73.8342 26.4263 73.4258 26.0936 73.1535 25.8515C72.8964 25.6095 72.7451 25.4885 72.7451 25.4885C72.7451 25.4885 72.8813 25.6095 73.1384 25.8667C73.3956 26.1238 73.7889 26.4717 74.3183 26.8953C74.8629 27.3188 75.5587 27.8029 76.4209 28.2869C77.2983 28.771 78.342 29.2399 79.5673 29.6483C80.7926 30.0416 82.1842 30.3744 83.7272 30.5862C85.2701 30.798 86.9492 30.8736 88.7493 30.8434C92.3343 30.7526 96.358 30.1929 100.654 29.2097C104.95 28.2416 109.518 26.865 114.298 25.2918C116.688 24.5052 119.124 23.6733 121.62 22.8262C124.116 21.9791 126.657 21.1168 129.259 20.3303C130.56 19.937 131.861 19.5588 133.192 19.2411C133.842 19.0899 134.523 18.9235 135.173 18.8024C135.491 18.7419 135.839 18.6814 136.187 18.6209C136.52 18.5755 136.852 18.5302 137.185 18.4848C139.893 18.152 142.676 18.0764 145.323 18.5453C146.639 18.7873 147.925 19.1655 149.09 19.7403C150.255 20.3 151.283 21.0866 152.1 22.0396C153.749 23.9456 154.399 26.6079 154.097 29.2248C153.946 30.5257 153.598 31.8266 153.083 33.0519C152.826 33.6721 152.539 34.262 152.191 34.852C151.858 35.4268 151.465 35.9865 151.041 36.5008C150.194 37.5445 149.135 38.437 147.925 39.0421C147.32 39.3446 146.655 39.5715 146.019 39.6925C145.868 39.7379 145.671 39.753 145.505 39.7833L145.369 39.7984C145.354 39.7984 145.308 39.8135 145.323 39.7984H145.263L145.006 39.8135C144.673 39.8438 144.34 39.8135 144.007 39.7682C142.691 39.6018 141.466 38.8908 140.74 37.8168C139.999 36.7428 139.802 35.3663 139.999 34.0805C140.09 33.43 140.286 32.7947 140.543 32.1745C140.785 31.5543 141.118 30.9795 141.481 30.4047C142.192 29.2853 143.1 28.2567 144.038 27.3491C144.265 27.1222 144.537 26.8953 144.779 26.6532L144.96 26.4869L145.142 26.3356L145.52 26.0179C146.019 25.5792 146.549 25.1708 147.063 24.7624C148.122 23.9607 149.181 23.2043 150.255 22.5085C151.344 21.8278 152.448 21.1925 153.568 20.6177C153.855 20.4815 154.127 20.3454 154.415 20.2092C154.687 20.0731 154.974 19.9521 155.262 19.8311C155.534 19.6949 155.821 19.589 156.109 19.468C156.396 19.347 156.669 19.226 156.956 19.1352C157.243 19.0293 157.516 18.9235 157.803 18.8176C158.09 18.7268 158.378 18.6209 158.65 18.5302C159.225 18.3486 159.785 18.1822 160.359 18.031C161.494 17.7284 162.644 17.5167 163.763 17.3654C166.017 17.0629 168.24 17.1234 170.313 17.441C172.385 17.7587 174.321 18.394 176.016 19.2714C177.71 20.1487 179.147 21.2832 180.206 22.5841C181.28 23.885 181.976 25.3372 182.308 26.7591C182.475 27.4701 182.55 28.181 182.55 28.8466C182.55 29.5273 182.505 30.1627 182.384 30.7829C182.157 31.993 181.764 33.0519 181.355 33.9292C180.932 34.8066 180.493 35.5175 180.115 36.0772C179.737 36.6369 179.419 37.0605 179.192 37.3328C178.965 37.605 178.859 37.7563 178.859 37.7563C178.844 37.7714 178.844 37.8017 178.859 37.8168C178.95 37.8471 178.981 37.8471 178.996 37.8319Z" fill="#B3803F"/>
<path d="M181.22 25.9272C181.22 25.9272 181.114 25.8213 180.902 25.6096C180.796 25.5037 180.66 25.3827 180.509 25.2314C180.327 25.0953 180.13 24.9289 179.904 24.7473C179.677 24.5658 179.389 24.3994 179.087 24.2028C178.935 24.0969 178.769 24.0212 178.588 23.9305C178.406 23.8397 178.224 23.7338 178.028 23.6582C177.831 23.5826 177.619 23.4918 177.408 23.4011C177.196 23.3254 176.954 23.2649 176.712 23.1893C176.47 23.1136 176.228 23.0683 175.955 23.0078C175.698 22.9472 175.426 22.917 175.154 22.8867C174.034 22.7809 172.779 22.796 171.463 23.1439C171.296 23.1893 171.13 23.2347 170.964 23.28C170.797 23.3254 170.631 23.3859 170.464 23.4464C170.132 23.5523 169.799 23.7036 169.466 23.8549C168.816 24.1725 168.165 24.5809 167.56 25.0801C166.955 25.5793 166.395 26.1693 165.942 26.8651C165.488 27.5609 165.11 28.3475 164.989 29.2249C164.837 30.0871 165.094 31.0552 165.7 31.7208C166.002 32.0536 166.426 32.3259 166.895 32.4015C167.363 32.4771 167.863 32.3864 168.316 32.22C169.224 31.8569 170.026 31.2065 170.646 30.4199C171.281 29.6182 171.69 28.65 171.932 27.6366C172.174 26.6231 172.265 25.5339 172.128 24.4599C171.992 23.3859 171.629 22.3119 171.07 21.3589C170.51 20.4059 169.769 19.5588 168.922 18.8328C168.074 18.1067 167.137 17.5016 166.138 17.0024C165.639 16.7453 165.125 16.5184 164.61 16.3066L164.217 16.1553L164.02 16.0797L163.824 16.0041C163.567 15.9133 163.294 15.8225 163.037 15.7166C162.508 15.52 161.963 15.3687 161.434 15.1872C160.889 15.0359 160.345 14.8544 159.785 14.7183C159.513 14.6426 159.225 14.5821 158.953 14.5065C158.666 14.446 158.393 14.3855 158.106 14.325C157.818 14.2645 157.546 14.204 157.259 14.1586C156.971 14.1132 156.684 14.0376 156.397 14.0073C155.247 13.8258 154.067 13.7502 152.887 13.735C151.707 13.7199 150.512 13.7955 149.317 13.9771C148.122 14.1435 146.942 14.4006 145.778 14.7485C144.613 15.0964 143.463 15.5049 142.344 15.9738C141.209 16.4276 140.105 16.957 139.016 17.5016C136.822 18.5907 134.69 19.8009 132.602 21.0564C131.558 21.6917 130.515 22.327 129.486 22.9624L127.958 23.9456C127.459 24.2784 126.945 24.5961 126.446 24.9289C125.931 25.2465 125.432 25.5944 124.918 25.897C124.419 26.2146 123.919 26.5172 123.405 26.8348C122.392 27.455 121.378 28.045 120.349 28.6349C116.265 30.9644 112.06 32.9309 107.84 34.3831C105.737 35.1092 103.634 35.6991 101.547 36.0924C99.4593 36.4706 97.4021 36.6672 95.4356 36.5614C94.9516 36.516 94.4524 36.5008 93.9834 36.4252C93.7414 36.395 93.4994 36.3647 93.2725 36.3193C93.0456 36.2739 92.8036 36.2286 92.5767 36.1681C91.6691 35.9412 90.7766 35.6689 89.99 35.2453L89.6874 35.0941L89.4 34.9277C89.2185 34.8066 89.0219 34.7008 88.8403 34.5797C88.4924 34.3075 88.1294 34.0654 87.8269 33.7629C87.1915 33.1881 86.6621 32.5225 86.1629 31.7964C86.057 31.63 85.9511 31.4485 85.8301 31.2821C85.7242 31.1006 85.6335 30.9191 85.5427 30.7375C85.4368 30.556 85.3612 30.3745 85.2856 30.1779C85.2099 29.9963 85.1192 29.8148 85.0586 29.6182C84.7561 28.8618 84.6048 28.0904 84.499 27.334C84.3931 26.5777 84.4082 25.8213 84.4838 25.0953C84.5443 24.3692 84.7259 23.6733 84.9528 23.0229C85.4066 21.722 86.1478 20.6177 86.9797 19.7555C87.842 18.9235 88.8101 18.3336 89.748 17.9857C90.6858 17.6377 91.6085 17.5167 92.3951 17.5167C92.501 17.5167 92.5918 17.5167 92.6825 17.5167C92.7733 17.5167 92.8792 17.5319 92.97 17.5319C93.1515 17.547 93.333 17.5621 93.4994 17.5772C93.8322 17.6377 94.1347 17.668 94.407 17.7285C94.6793 17.8041 94.9213 17.8646 95.118 17.91C95.3146 17.9705 95.4961 18.031 95.6323 18.0764C95.9046 18.1672 96.0407 18.2126 96.0407 18.2126H96.0558C96.1466 18.2428 96.2373 18.1974 96.2525 18.1067C96.2827 18.031 96.2373 17.9403 96.1617 17.91C96.1617 17.91 96.0256 17.8495 95.7533 17.7285C95.6171 17.668 95.4507 17.5924 95.239 17.5167C95.0272 17.4411 94.7852 17.3655 94.5129 17.2747C94.2406 17.1991 93.9229 17.1234 93.5599 17.0327C93.3784 17.0024 93.1969 16.9722 93.0002 16.9419C92.9094 16.9268 92.8036 16.9117 92.6977 16.8965C92.5918 16.8965 92.4859 16.8814 92.38 16.8814C91.5329 16.8209 90.5194 16.8814 89.4454 17.1991C88.3714 17.5167 87.2369 18.0916 86.2083 18.984C85.1948 19.8916 84.2872 21.0867 83.6972 22.554C83.0922 24.0061 82.7896 25.7154 82.9258 27.4853C83.0014 28.3626 83.1527 29.2702 83.4552 30.1627C83.5157 30.3896 83.6065 30.6014 83.6972 30.8283C83.788 31.0552 83.8636 31.267 83.9695 31.4788C84.0754 31.6905 84.1813 31.9174 84.2872 32.1292C84.4082 32.341 84.5292 32.5679 84.6654 32.7797C84.7864 33.0066 84.9225 33.1881 85.0435 33.3847L85.2402 33.6721L85.3309 33.8083C85.3309 33.8083 85.3914 33.8839 85.3763 33.8688L85.4066 33.899L85.4671 33.9747C85.6335 34.1713 85.7847 34.368 85.9511 34.5646L86.0721 34.7159L86.2083 34.852L86.4806 35.1243C86.8285 35.5025 87.252 35.8201 87.6605 36.1529C87.8722 36.3042 88.0991 36.4403 88.3109 36.5916L88.6437 36.8034L88.9916 36.9849C89.9143 37.5143 90.943 37.8774 91.9867 38.1799C92.2439 38.2404 92.5162 38.3161 92.7733 38.3766C93.0456 38.4371 93.3027 38.4673 93.575 38.5278C94.1196 38.6337 94.649 38.6791 95.2087 38.7396C97.4021 38.906 99.6409 38.7396 101.864 38.3766C104.088 38.0135 106.312 37.4236 108.52 36.7126C112.937 35.2605 117.279 33.2486 121.499 30.8888C122.558 30.2989 123.602 29.6787 124.63 29.0282C125.659 28.3778 126.703 27.6971 127.686 27.0164C128.699 26.3205 129.668 25.6247 130.651 24.9137C131.634 24.2179 132.617 23.5069 133.6 22.8111C135.567 21.4194 137.549 20.0429 139.576 18.7874C140.589 18.1672 141.633 17.5621 142.692 17.0327C143.751 16.5032 144.825 16.0041 145.929 15.6108C148.137 14.809 150.452 14.3099 152.766 14.2947C153.916 14.2796 155.081 14.3401 156.2 14.5065C157.334 14.6729 158.454 14.8998 159.528 15.2175C159.8 15.2931 160.072 15.3687 160.345 15.4595C160.617 15.5503 160.874 15.6259 161.146 15.7166C161.676 15.9133 162.19 16.0797 162.704 16.3066C162.962 16.4125 163.219 16.5184 163.476 16.6243L163.673 16.6999L163.854 16.7755L164.232 16.9419C164.731 17.1688 165.215 17.4108 165.669 17.6831C166.592 18.2126 167.454 18.8328 168.211 19.5437C168.952 20.2547 169.587 21.0564 170.026 21.9186C170.949 23.6431 171.115 25.6398 170.676 27.4096C170.449 28.3021 170.071 29.119 169.663 29.8904C169.451 30.2837 169.209 30.6468 168.937 30.9947C168.664 31.3275 168.362 31.6451 167.999 31.872C167.636 32.099 167.227 32.2502 166.804 32.22C166.395 32.1897 166.002 31.9628 165.745 31.6451C165.2 31.0098 165.049 30.1173 165.276 29.3761C165.488 28.6198 165.926 27.9693 166.441 27.4399C166.955 26.9105 167.53 26.4567 168.12 26.0785C170.464 24.5658 172.93 23.991 174.927 24.0969C176.939 24.1725 178.467 24.8078 179.45 25.2919C179.692 25.4129 179.919 25.5339 180.1 25.6247C180.282 25.7457 180.448 25.8365 180.569 25.9121C180.826 26.0634 180.947 26.139 180.947 26.139C181.008 26.1693 181.083 26.1541 181.114 26.0936C181.28 26.0331 181.265 25.9726 181.22 25.9272Z" fill="#B3803F"/>
<path d="M178.996 99.8218C178.996 99.8218 179.117 99.9579 179.374 100.2C179.631 100.442 179.979 100.835 180.418 101.365C180.856 101.894 181.355 102.59 181.87 103.452C182.384 104.33 182.868 105.388 183.201 106.674C183.367 107.31 183.473 108.005 183.519 108.747C183.564 109.488 183.519 110.259 183.382 111.061C183.11 112.649 182.429 114.328 181.295 115.826C180.176 117.323 178.633 118.655 176.817 119.698C175.002 120.727 172.915 121.468 170.676 121.892C168.437 122.315 166.047 122.391 163.612 122.119C161.191 121.846 158.711 121.272 156.305 120.319C153.885 119.381 151.556 118.11 149.347 116.567C148.243 115.796 147.169 114.964 146.125 114.071C145.611 113.617 145.097 113.164 144.597 112.695L144.219 112.347L144.023 112.165L143.841 111.984C143.599 111.742 143.357 111.515 143.115 111.243C142.147 110.199 141.269 109.079 140.543 107.824C140.18 107.189 139.848 106.538 139.605 105.842C139.363 105.146 139.152 104.435 139.061 103.694C138.97 102.953 138.985 102.182 139.137 101.425C139.303 100.684 139.59 99.9428 140.029 99.3075C140.468 98.6722 141.058 98.1276 141.723 97.7343C142.389 97.3259 143.145 97.0838 143.901 96.9628C144.28 96.9023 144.673 96.8721 145.051 96.8721H145.339H145.414H145.505L145.641 96.8872C145.823 96.9023 145.989 96.9023 146.186 96.9477C146.972 97.0385 147.698 97.22 148.44 97.4771C149.892 97.9915 151.253 98.8083 152.418 99.8672C153.008 100.397 153.537 100.971 154.021 101.592C154.505 102.212 154.929 102.893 155.292 103.588C156.018 104.995 156.487 106.538 156.684 108.142C156.88 109.73 156.805 111.379 156.396 112.967C155.988 114.555 155.201 116.068 154.127 117.323C153.053 118.579 151.692 119.562 150.255 120.243C148.818 120.954 147.29 121.347 145.777 121.604C144.265 121.846 142.752 121.907 141.269 121.862C139.787 121.816 138.335 121.665 136.898 121.438C136.535 121.377 136.172 121.317 135.809 121.256C135.461 121.181 135.128 121.12 134.765 121.045C134.039 120.893 133.358 120.712 132.677 120.515C131.316 120.137 129.985 119.714 128.669 119.275C126.052 118.397 123.526 117.444 121.06 116.522C118.594 115.599 116.174 114.691 113.829 113.844C109.125 112.135 104.632 110.653 100.427 109.548C96.2219 108.429 92.2738 107.733 88.7493 107.521C85.2247 107.325 82.1388 107.627 79.6883 108.323C78.463 108.671 77.4193 109.095 76.5268 109.533C75.6495 109.987 74.9385 110.426 74.3788 110.834C73.8342 111.227 73.4258 111.56 73.1535 111.802C72.8964 112.029 72.7451 112.165 72.7451 112.165C72.7451 112.165 72.8813 112.044 73.1384 111.787C73.3956 111.53 73.7889 111.182 74.3183 110.758C74.8629 110.335 75.5587 109.851 76.4209 109.367C77.2983 108.883 78.342 108.414 79.5673 108.005C80.7926 107.612 82.1842 107.279 83.7272 107.068C85.2701 106.856 86.9492 106.78 88.7493 106.81C92.3343 106.901 96.358 107.461 100.654 108.444C104.95 109.412 109.518 110.789 114.298 112.362C116.688 113.148 119.124 113.98 121.62 114.828C124.116 115.675 126.657 116.537 129.259 117.323C130.56 117.717 131.861 118.095 133.192 118.413C133.842 118.564 134.523 118.73 135.173 118.851C135.491 118.912 135.839 118.972 136.187 119.033C136.52 119.078 136.852 119.124 137.185 119.169C139.893 119.502 142.676 119.577 145.323 119.108C146.639 118.866 147.925 118.488 149.09 117.913C150.255 117.354 151.283 116.567 152.1 115.614C153.749 113.708 154.399 111.046 154.097 108.429C153.946 107.128 153.598 105.827 153.083 104.602C152.826 103.982 152.539 103.392 152.191 102.802C151.858 102.227 151.465 101.667 151.041 101.153C150.194 100.109 149.135 99.2167 147.925 98.6117C147.32 98.3091 146.655 98.0822 146.019 97.9612C145.868 97.9158 145.671 97.9007 145.505 97.8704L145.369 97.8553C145.354 97.8553 145.308 97.8402 145.323 97.8553H145.263L145.006 97.8402C144.673 97.8099 144.34 97.8402 144.007 97.8856C142.691 98.052 141.466 98.7629 140.74 99.8369C139.999 100.911 139.802 102.287 139.999 103.573C140.09 104.224 140.286 104.859 140.543 105.479C140.785 106.099 141.118 106.674 141.481 107.249C142.192 108.368 143.1 109.397 144.038 110.305C144.265 110.532 144.537 110.758 144.779 111L144.96 111.167L145.142 111.318L145.52 111.636C146.019 112.074 146.549 112.483 147.063 112.891C148.122 113.693 149.181 114.449 150.255 115.145C151.344 115.826 152.448 116.461 153.568 117.036C153.855 117.172 154.127 117.308 154.415 117.444C154.687 117.581 154.974 117.702 155.262 117.823C155.534 117.959 155.821 118.065 156.109 118.186C156.396 118.307 156.669 118.428 156.956 118.518C157.243 118.624 157.516 118.73 157.803 118.836C158.09 118.927 158.378 119.033 158.65 119.124C159.225 119.305 159.785 119.471 160.359 119.623C161.494 119.925 162.644 120.137 163.763 120.288C166.017 120.591 168.24 120.53 170.313 120.213C172.385 119.895 174.321 119.26 176.016 118.382C177.71 117.505 179.147 116.37 180.206 115.07C181.28 113.769 181.976 112.317 182.308 110.895C182.475 110.184 182.55 109.473 182.55 108.807C182.55 108.126 182.505 107.491 182.384 106.871C182.157 105.661 181.764 104.602 181.355 103.725C180.932 102.847 180.493 102.136 180.115 101.577C179.737 101.017 179.419 100.593 179.192 100.321C178.965 100.049 178.859 99.8974 178.859 99.8974C178.844 99.8823 178.844 99.852 178.859 99.8369C178.95 99.8067 178.981 99.8067 178.996 99.8218Z" fill="#B3803F"/>
<path d="M181.22 111.727C181.22 111.727 181.114 111.833 180.902 112.044C180.796 112.15 180.66 112.271 180.509 112.423C180.327 112.559 180.13 112.725 179.904 112.907C179.677 113.088 179.389 113.255 179.087 113.451C178.935 113.557 178.769 113.633 178.588 113.723C178.406 113.814 178.224 113.92 178.028 113.996C177.831 114.071 177.619 114.162 177.408 114.253C177.196 114.329 176.954 114.389 176.712 114.465C176.47 114.54 176.228 114.586 175.955 114.646C175.698 114.707 175.426 114.737 175.154 114.767C174.034 114.873 172.779 114.858 171.463 114.51C171.296 114.465 171.13 114.419 170.964 114.374C170.797 114.329 170.631 114.268 170.464 114.207C170.132 114.102 169.799 113.95 169.466 113.799C168.816 113.481 168.165 113.073 167.56 112.574C166.955 112.075 166.395 111.485 165.942 110.789C165.488 110.093 165.11 109.306 164.989 108.429C164.837 107.567 165.094 106.599 165.7 105.933C166.002 105.6 166.426 105.328 166.895 105.252C167.363 105.177 167.863 105.268 168.316 105.434C169.224 105.797 170.026 106.447 170.646 107.234C171.281 108.036 171.69 109.004 171.932 110.017C172.174 111.031 172.265 112.12 172.128 113.194C171.992 114.268 171.629 115.342 171.07 116.295C170.51 117.248 169.769 118.095 168.922 118.821C168.074 119.547 167.137 120.152 166.138 120.652C165.639 120.909 165.125 121.136 164.61 121.347L164.217 121.499L164.02 121.574L163.824 121.65C163.567 121.741 163.294 121.831 163.037 121.937C162.508 122.134 161.963 122.285 161.434 122.467C160.889 122.618 160.345 122.8 159.785 122.936C159.513 123.011 159.225 123.072 158.953 123.147C158.666 123.208 158.393 123.268 158.106 123.329C157.818 123.389 157.546 123.45 157.259 123.495C156.971 123.541 156.684 123.616 156.397 123.647C155.247 123.828 154.067 123.904 152.887 123.919C151.707 123.934 150.512 123.858 149.317 123.677C148.122 123.51 146.942 123.253 145.778 122.905C144.613 122.557 143.463 122.149 142.344 121.68C141.209 121.226 140.105 120.697 139.016 120.152C136.822 119.063 134.69 117.853 132.602 116.598C131.558 115.962 130.515 115.327 129.486 114.692L127.958 113.708C127.459 113.376 126.945 113.058 126.446 112.725C125.931 112.407 125.432 112.059 124.918 111.757C124.419 111.439 123.919 111.137 123.405 110.819C122.392 110.199 121.378 109.609 120.349 109.019C116.265 106.689 112.06 104.723 107.84 103.271C105.737 102.545 103.634 101.955 101.547 101.562C99.4593 101.183 97.4021 100.987 95.4356 101.093C94.9516 101.138 94.4524 101.153 93.9834 101.229C93.7414 101.259 93.4994 101.289 93.2725 101.335C93.0456 101.38 92.8036 101.425 92.5767 101.486C91.6691 101.713 90.7766 101.985 89.99 102.409L89.6874 102.56L89.4 102.726C89.2185 102.847 89.0219 102.953 88.8403 103.074C88.4924 103.346 88.1294 103.588 87.8269 103.891C87.1915 104.466 86.6621 105.131 86.1629 105.858C86.057 106.024 85.9511 106.205 85.8301 106.372C85.7242 106.553 85.6335 106.735 85.5427 106.916C85.4368 107.098 85.3612 107.279 85.2856 107.476C85.2099 107.658 85.1192 107.839 85.0586 108.036C84.7561 108.792 84.6048 109.564 84.499 110.32C84.3931 111.076 84.4082 111.833 84.4838 112.559C84.5443 113.285 84.7259 113.981 84.9528 114.631C85.4066 115.932 86.1478 117.036 86.9797 117.898C87.842 118.73 88.8101 119.32 89.748 119.668C90.6858 120.016 91.6085 120.137 92.3951 120.137C92.501 120.137 92.5918 120.137 92.6825 120.137C92.7733 120.137 92.8792 120.122 92.97 120.122C93.1515 120.107 93.333 120.092 93.4994 120.077C93.8322 120.016 94.1347 119.986 94.407 119.925C94.6793 119.85 94.9213 119.789 95.118 119.744C95.3146 119.683 95.4961 119.623 95.6323 119.578C95.9046 119.487 96.0407 119.441 96.0407 119.441H96.0558C96.1466 119.411 96.2373 119.456 96.2525 119.547C96.2827 119.623 96.2373 119.714 96.1617 119.744C96.1617 119.744 96.0256 119.804 95.7533 119.925C95.6171 119.986 95.4507 120.062 95.239 120.137C95.0272 120.213 94.7852 120.288 94.5129 120.379C94.2406 120.455 93.9229 120.53 93.5599 120.621C93.3784 120.652 93.1969 120.682 93.0002 120.712C92.9094 120.727 92.8036 120.742 92.6977 120.757C92.5918 120.757 92.4859 120.773 92.38 120.773C91.5329 120.833 90.5194 120.773 89.4454 120.455C88.3714 120.137 87.2369 119.562 86.2083 118.67C85.1948 117.762 84.2872 116.567 83.6972 115.1C83.0922 113.648 82.7896 111.938 82.9258 110.169C83.0014 109.291 83.1527 108.384 83.4552 107.491C83.5157 107.264 83.6065 107.053 83.6972 106.826C83.788 106.599 83.8636 106.387 83.9695 106.175C84.0754 105.963 84.1813 105.736 84.2872 105.525C84.4082 105.313 84.5292 105.086 84.6654 104.874C84.7864 104.647 84.9225 104.466 85.0435 104.269L85.2402 103.982L85.3309 103.846C85.3309 103.846 85.3914 103.77 85.3763 103.785L85.4066 103.755L85.4671 103.679C85.6335 103.483 85.7847 103.286 85.9511 103.089L86.0721 102.938L86.2083 102.802L86.4806 102.53C86.8285 102.151 87.252 101.834 87.6605 101.501C87.8722 101.35 88.0991 101.214 88.3109 101.062L88.6437 100.851L88.9916 100.669C89.9143 100.14 90.943 99.7765 91.9867 99.474C92.2439 99.4135 92.5162 99.3379 92.7733 99.2774C93.0456 99.2168 93.3027 99.1866 93.575 99.1261C94.1196 99.0202 94.649 98.9748 95.2087 98.9143C97.4021 98.7479 99.6409 98.9143 101.864 99.2774C104.088 99.6404 106.312 100.23 108.52 100.941C112.937 102.393 117.279 104.405 121.499 106.765C122.558 107.355 123.602 107.975 124.63 108.626C125.659 109.276 126.703 109.957 127.686 110.638C128.699 111.333 129.668 112.029 130.651 112.74C131.634 113.436 132.617 114.147 133.6 114.843C135.567 116.234 137.549 117.611 139.576 118.867C140.589 119.487 141.633 120.092 142.692 120.621C143.751 121.151 144.825 121.65 145.929 122.043C148.137 122.845 150.452 123.344 152.766 123.359C153.916 123.374 155.081 123.314 156.2 123.147C157.334 122.981 158.454 122.754 159.528 122.436C159.8 122.361 160.072 122.285 160.345 122.194C160.617 122.104 160.874 122.028 161.146 121.937C161.676 121.741 162.19 121.574 162.704 121.347C162.962 121.241 163.219 121.136 163.476 121.03L163.673 120.954L163.854 120.878L164.232 120.712C164.731 120.485 165.215 120.243 165.669 119.971C166.592 119.441 167.454 118.821 168.211 118.11C168.952 117.399 169.587 116.598 170.026 115.735C170.949 114.011 171.115 112.029 170.676 110.244C170.449 109.352 170.071 108.535 169.663 107.763C169.451 107.37 169.209 107.007 168.937 106.659C168.664 106.326 168.362 106.009 167.999 105.782C167.636 105.555 167.227 105.404 166.804 105.434C166.395 105.464 166.002 105.691 165.745 106.009C165.2 106.644 165.049 107.537 165.276 108.278C165.488 109.034 165.926 109.685 166.441 110.214C166.955 110.759 167.53 111.197 168.12 111.575C170.464 113.088 172.93 113.663 174.927 113.557C176.939 113.481 178.467 112.846 179.45 112.362C179.692 112.241 179.919 112.12 180.1 112.029C180.282 111.908 180.448 111.817 180.569 111.742C180.826 111.591 180.947 111.515 180.947 111.515C181.008 111.485 181.083 111.5 181.114 111.56C181.28 111.621 181.265 111.681 181.22 111.727Z" fill="#B3803F"/>
<path d="M184.108 99.8218C184.108 99.8218 183.987 99.9579 183.73 100.2C183.473 100.442 183.125 100.835 182.686 101.365C182.248 101.894 181.749 102.59 181.234 103.452C180.72 104.33 180.236 105.388 179.903 106.674C179.737 107.31 179.631 108.005 179.585 108.747C179.54 109.488 179.585 110.259 179.722 111.061C179.994 112.649 180.675 114.328 181.809 115.826C182.928 117.323 184.471 118.655 186.287 119.698C188.102 120.727 190.189 121.468 192.428 121.892C194.667 122.315 197.057 122.391 199.492 122.119C201.913 121.846 204.393 121.272 206.798 120.319C209.219 119.381 211.548 118.11 213.757 116.567C214.861 115.796 215.935 114.964 216.979 114.071C217.493 113.617 218.007 113.164 218.507 112.695L218.885 112.347L219.081 112.165L219.263 111.984C219.505 111.742 219.747 111.515 219.989 111.243C220.957 110.199 221.834 109.079 222.561 107.824C222.924 107.189 223.256 106.538 223.498 105.842C223.74 105.146 223.952 104.435 224.043 103.694C224.134 102.953 224.119 102.182 223.967 101.425C223.816 100.684 223.514 99.9428 223.075 99.3075C222.636 98.6722 222.046 98.1276 221.381 97.7343C220.715 97.3259 219.959 97.0838 219.202 96.9628C218.824 96.9023 218.431 96.8721 218.053 96.8721H217.765H217.69H217.599L217.463 96.8872C217.281 96.9023 217.115 96.9023 216.918 96.9477C216.132 97.0385 215.406 97.22 214.664 97.4771C213.212 97.9915 211.851 98.8083 210.686 99.8672C210.096 100.397 209.567 100.971 209.083 101.592C208.599 102.212 208.175 102.893 207.812 103.588C207.086 104.995 206.617 106.538 206.42 108.142C206.224 109.73 206.299 111.379 206.708 112.967C207.116 114.555 207.903 116.068 208.977 117.323C210.051 118.579 211.412 119.562 212.849 120.243C214.286 120.954 215.814 121.347 217.327 121.604C218.839 121.846 220.352 121.907 221.834 121.862C223.317 121.816 224.769 121.665 226.206 121.438C226.569 121.377 226.932 121.317 227.295 121.256C227.643 121.181 227.976 121.12 228.339 121.045C229.065 120.893 229.746 120.712 230.426 120.515C231.788 120.137 233.119 119.714 234.435 119.275C237.052 118.397 239.578 117.444 242.044 116.522C244.51 115.599 246.93 114.691 249.274 113.844C253.979 112.135 258.472 110.653 262.677 109.548C266.882 108.429 270.83 107.733 274.355 107.521C277.879 107.325 280.965 107.627 283.416 108.323C284.641 108.671 285.685 109.095 286.577 109.533C287.454 109.987 288.165 110.426 288.725 110.834C289.27 111.227 289.678 111.56 289.95 111.802C290.208 112.029 290.359 112.165 290.359 112.165C290.359 112.165 290.223 112.044 289.966 111.787C289.708 111.53 289.315 111.182 288.786 110.758C288.241 110.335 287.545 109.851 286.683 109.367C285.806 108.883 284.762 108.414 283.537 108.005C282.311 107.612 280.92 107.279 279.377 107.068C277.834 106.856 276.155 106.78 274.355 106.81C270.77 106.901 266.746 107.461 262.45 108.444C258.154 109.412 253.586 110.789 248.806 112.362C246.415 113.148 243.98 113.98 241.484 114.828C238.988 115.675 236.447 116.537 233.845 117.323C232.544 117.717 231.243 118.095 229.912 118.413C229.262 118.564 228.581 118.73 227.931 118.851C227.613 118.912 227.265 118.972 226.917 119.033C226.584 119.078 226.252 119.124 225.919 119.169C223.211 119.502 220.428 119.577 217.781 119.108C216.464 118.866 215.179 118.488 214.014 117.913C212.849 117.354 211.821 116.567 211.004 115.614C209.355 113.708 208.704 111.046 209.007 108.429C209.158 107.128 209.506 105.827 210.02 104.602C210.278 103.982 210.565 103.392 210.913 102.802C211.246 102.227 211.639 101.667 212.063 101.153C212.91 100.109 213.969 99.2167 215.179 98.6117C215.784 98.3091 216.449 98.0822 217.085 97.9612C217.236 97.9158 217.433 97.9007 217.599 97.8704L217.735 97.8553C217.75 97.8553 217.796 97.8402 217.781 97.8553H217.841L218.098 97.8402C218.431 97.8099 218.764 97.8402 219.097 97.8856C220.413 98.052 221.638 98.7629 222.364 99.8369C223.105 100.911 223.302 102.287 223.105 103.573C223.014 104.224 222.818 104.859 222.561 105.479C222.319 106.099 221.986 106.674 221.623 107.249C220.912 108.368 220.004 109.397 219.066 110.305C218.839 110.532 218.567 110.758 218.325 111L218.144 111.167L217.962 111.318L217.584 111.636C217.085 112.074 216.555 112.483 216.041 112.891C214.982 113.693 213.923 114.449 212.849 115.145C211.76 115.826 210.656 116.461 209.536 117.036C209.249 117.172 208.977 117.308 208.689 117.444C208.417 117.581 208.13 117.702 207.842 117.823C207.57 117.959 207.283 118.065 206.995 118.186C206.708 118.307 206.435 118.428 206.148 118.518C205.861 118.624 205.588 118.73 205.301 118.836C205.014 118.927 204.726 119.033 204.454 119.124C203.879 119.305 203.319 119.471 202.744 119.623C201.61 119.925 200.46 120.137 199.341 120.288C197.087 120.591 194.863 120.53 192.791 120.213C190.719 119.895 188.782 119.26 187.088 118.382C185.394 117.505 183.957 116.37 182.898 115.07C181.824 113.769 181.128 112.317 180.796 110.895C180.629 110.184 180.553 109.473 180.553 108.807C180.553 108.126 180.599 107.491 180.72 106.871C180.947 105.661 181.34 104.602 181.749 103.725C182.172 102.847 182.611 102.136 182.989 101.577C183.367 101.017 183.685 100.593 183.912 100.321C184.139 100.049 184.244 99.8974 184.244 99.8974C184.26 99.8823 184.26 99.852 184.244 99.8369C184.154 99.8067 184.123 99.8067 184.108 99.8218Z" fill="#B3803F"/>
<path d="M181.869 111.727C181.869 111.727 181.975 111.833 182.187 112.044C182.293 112.15 182.429 112.271 182.58 112.423C182.762 112.559 182.958 112.725 183.185 112.907C183.412 113.088 183.699 113.255 184.002 113.451C184.153 113.557 184.32 113.633 184.501 113.723C184.683 113.814 184.864 113.92 185.061 113.996C185.257 114.071 185.469 114.162 185.681 114.253C185.893 114.329 186.135 114.389 186.377 114.465C186.619 114.54 186.861 114.586 187.133 114.646C187.39 114.707 187.663 114.737 187.935 114.767C189.054 114.873 190.31 114.858 191.626 114.51C191.792 114.465 191.959 114.419 192.125 114.374C192.291 114.329 192.458 114.268 192.624 114.207C192.957 114.102 193.29 113.95 193.623 113.799C194.273 113.481 194.924 113.073 195.529 112.574C196.134 112.075 196.693 111.485 197.147 110.789C197.601 110.093 197.979 109.306 198.1 108.429C198.251 107.567 197.994 106.599 197.389 105.933C197.087 105.6 196.663 105.328 196.194 105.252C195.725 105.177 195.226 105.268 194.772 105.434C193.865 105.797 193.063 106.447 192.443 107.234C191.807 108.036 191.399 109.004 191.157 110.017C190.915 111.031 190.824 112.12 190.96 113.194C191.096 114.268 191.459 115.342 192.019 116.295C192.579 117.248 193.32 118.095 194.167 118.821C195.014 119.547 195.952 120.152 196.951 120.652C197.45 120.909 197.964 121.136 198.478 121.347L198.872 121.499L199.068 121.574L199.265 121.65C199.522 121.741 199.794 121.831 200.051 121.937C200.581 122.134 201.125 122.285 201.655 122.467C202.199 122.618 202.744 122.8 203.304 122.936C203.576 123.011 203.863 123.072 204.136 123.147C204.423 123.208 204.695 123.268 204.983 123.329C205.27 123.389 205.543 123.45 205.83 123.495C206.117 123.541 206.405 123.616 206.692 123.647C207.842 123.828 209.022 123.904 210.202 123.919C211.381 123.934 212.576 123.858 213.771 123.677C214.967 123.51 216.146 123.253 217.311 122.905C218.476 122.557 219.626 122.149 220.745 121.68C221.879 121.226 222.984 120.697 224.073 120.152C226.266 119.063 228.399 117.853 230.487 116.598C231.53 115.962 232.574 115.327 233.603 114.692L235.131 113.708C235.63 113.376 236.144 113.058 236.643 112.725C237.157 112.407 237.657 112.059 238.171 111.757C238.67 111.439 239.169 111.137 239.684 110.819C240.697 110.199 241.711 109.609 242.739 109.019C246.824 106.689 251.029 104.723 255.249 103.271C257.352 102.545 259.454 101.955 261.542 101.562C263.629 101.183 265.687 100.987 267.653 101.093C268.137 101.138 268.636 101.153 269.105 101.229C269.347 101.259 269.589 101.289 269.816 101.335C270.043 101.38 270.285 101.425 270.512 101.486C271.42 101.713 272.312 101.985 273.099 102.409L273.401 102.56L273.689 102.726C273.87 102.847 274.067 102.953 274.248 103.074C274.596 103.346 274.959 103.588 275.262 103.891C275.897 104.466 276.427 105.131 276.926 105.858C277.032 106.024 277.138 106.205 277.259 106.372C277.364 106.553 277.455 106.735 277.546 106.916C277.652 107.098 277.728 107.279 277.803 107.476C277.879 107.658 277.97 107.839 278.03 108.036C278.333 108.792 278.484 109.564 278.59 110.32C278.696 111.076 278.68 111.833 278.605 112.559C278.544 113.285 278.363 113.981 278.136 114.631C277.682 115.932 276.941 117.036 276.109 117.898C275.247 118.73 274.279 119.32 273.341 119.668C272.403 120.016 271.48 120.137 270.694 120.137C270.588 120.137 270.497 120.137 270.406 120.137C270.315 120.137 270.21 120.122 270.119 120.122C269.937 120.107 269.756 120.092 269.589 120.077C269.257 120.016 268.954 119.986 268.682 119.925C268.409 119.85 268.167 119.789 267.971 119.744C267.774 119.683 267.593 119.623 267.456 119.578C267.184 119.487 267.048 119.441 267.048 119.441H267.033C266.942 119.411 266.851 119.456 266.836 119.547C266.806 119.623 266.851 119.714 266.927 119.744C266.927 119.744 267.063 119.804 267.335 119.925C267.472 119.986 267.638 120.062 267.85 120.137C268.062 120.213 268.304 120.288 268.576 120.379C268.848 120.455 269.166 120.53 269.529 120.621C269.71 120.652 269.892 120.682 270.088 120.712C270.179 120.727 270.285 120.742 270.391 120.757C270.497 120.757 270.603 120.773 270.709 120.773C271.556 120.833 272.569 120.773 273.643 120.455C274.717 120.137 275.852 119.562 276.88 118.67C277.894 117.762 278.802 116.567 279.391 115.1C279.997 113.648 280.299 111.938 280.163 110.169C280.087 109.291 279.936 108.384 279.633 107.491C279.573 107.264 279.482 107.053 279.391 106.826C279.301 106.599 279.225 106.387 279.119 106.175C279.013 105.963 278.907 105.736 278.802 105.525C278.68 105.313 278.559 105.086 278.423 104.874C278.302 104.647 278.166 104.466 278.045 104.269L277.849 103.982L277.758 103.846C277.758 103.846 277.697 103.77 277.712 103.785L277.682 103.755L277.622 103.679C277.455 103.483 277.304 103.286 277.138 103.089L277.017 102.938L276.88 102.802L276.608 102.53C276.26 102.151 275.837 101.834 275.428 101.501C275.216 101.35 274.99 101.214 274.778 101.062L274.445 100.851L274.097 100.669C273.174 100.14 272.146 99.7765 271.102 99.474C270.845 99.4135 270.573 99.3379 270.315 99.2774C270.043 99.2168 269.786 99.1866 269.514 99.1261C268.969 99.0202 268.44 98.9748 267.88 98.9143C265.687 98.7479 263.448 98.9143 261.224 99.2774C259.001 99.6404 256.777 100.23 254.568 100.941C250.151 102.393 245.81 104.405 241.59 106.765C240.531 107.355 239.487 107.975 238.458 108.626C237.43 109.276 236.386 109.957 235.403 110.638C234.389 111.333 233.421 112.029 232.438 112.74C231.455 113.436 230.471 114.147 229.488 114.843C227.522 116.234 225.54 117.611 223.513 118.867C222.5 119.487 221.456 120.092 220.397 120.621C219.338 121.151 218.264 121.65 217.16 122.043C214.951 122.845 212.637 123.344 210.323 123.359C209.173 123.374 208.008 123.314 206.889 123.147C205.754 122.981 204.635 122.754 203.561 122.436C203.289 122.361 203.016 122.285 202.744 122.194C202.472 122.104 202.215 122.028 201.942 121.937C201.413 121.741 200.899 121.574 200.384 121.347C200.127 121.241 199.87 121.136 199.613 121.03L199.416 120.954L199.235 120.878L198.856 120.712C198.357 120.485 197.873 120.243 197.419 119.971C196.497 119.441 195.634 118.821 194.878 118.11C194.137 117.399 193.502 116.598 193.063 115.735C192.14 114.011 191.974 112.029 192.412 110.244C192.639 109.352 193.018 108.535 193.426 107.763C193.638 107.37 193.88 107.007 194.152 106.659C194.424 106.326 194.727 106.009 195.09 105.782C195.453 105.555 195.861 105.404 196.285 105.434C196.693 105.464 197.087 105.691 197.344 106.009C197.888 106.644 198.04 107.537 197.798 108.278C197.586 109.034 197.147 109.685 196.633 110.214C196.119 110.759 195.544 111.197 194.954 111.575C192.609 113.088 190.143 113.663 188.147 113.557C186.135 113.481 184.607 112.846 183.624 112.362C183.382 112.241 183.155 112.12 182.973 112.029C182.792 111.908 182.625 111.817 182.504 111.742C182.247 111.591 182.126 111.515 182.126 111.515C182.066 111.485 181.99 111.5 181.96 111.56C181.824 111.621 181.839 111.681 181.869 111.727Z" fill="#B3803F"/>
<path d="M316.528 41.2206H37.8023C37.4544 41.2206 37.167 40.9332 37.167 40.5853C37.167 40.2374 37.4544 39.95 37.8023 39.95H316.528C316.876 39.95 317.164 40.2374 317.164 40.5853C317.179 40.9332 316.891 41.2206 316.528 41.2206Z" fill="#B3803F"/>
<path d="M316.528 97.5375H37.8023C37.4544 97.5375 37.167 97.2501 37.167 96.9022C37.167 96.5543 37.4544 96.2668 37.8023 96.2668H316.528C316.876 96.2668 317.164 96.5543 317.164 96.9022C317.179 97.2501 316.891 97.5375 316.528 97.5375Z" fill="#B3803F"/>
</svg>
